<?xml version="1.0" encoding="UTF-8"?>
<!DOCTYPE svg PUBLIC "-//W3C//DTD SVG 1.1//EN" "http://www.w3.org/Graphics/SVG/1.1/DTD/svg11.dtd">
<svg version="1.2" width="114.81mm" height="71.12mm" viewBox="0 0 11481 7112" preserveAspectRatio="xMidYMid" fill-rule="evenodd" stroke-width="28.222" stroke-linejoin="round" xmlns="http://www.w3.org/2000/svg" xmlns:ooo="http://xml.openoffice.org/svg/export" xmlns:xlink="http://www.w3.org/1999/xlink" xmlns:presentation="http://sun.com/xmlns/staroffice/presentation" xmlns:smil="http://www.w3.org/2001/SMIL20/" xmlns:anim="urn:oasis:names:tc:opendocument:xmlns:animation:1.0" xml:space="preserve">
 <defs class="ClipPathGroup">
  <clipPath id="presentation_clip_path" clipPathUnits="userSpaceOnUse">
   <rect x="0" y="0" width="11481" height="7112"/>
  </clipPath>
  <clipPath id="presentation_clip_path_shrink" clipPathUnits="userSpaceOnUse">
   <rect x="11" y="7" width="11459" height="7098"/>
  </clipPath>
 </defs>
 <defs class="TextShapeIndex">
  <g ooo:slide="id1" ooo:id-list="id3 id4 id5 id6 id7 id8 id9 id10 id11 id12 id13 id14 id15"/>
 </defs>
 <defs class="EmbeddedBulletChars">
  <g id="bullet-char-template-57356" transform="scale(0.00048828125,-0.00048828125)">
   <path d="M 580,1141 L 1163,571 580,0 -4,571 580,1141 Z"/>
  </g>
  <g id="bullet-char-template-57354" transform="scale(0.00048828125,-0.00048828125)">
   <path d="M 8,1128 L 1137,1128 1137,0 8,0 8,1128 Z"/>
  </g>
  <g id="bullet-char-template-10146" transform="scale(0.00048828125,-0.00048828125)">
   <path d="M 174,0 L 602,739 174,1481 1456,739 174,0 Z M 1358,739 L 309,1346 659,739 1358,739 Z"/>
  </g>
  <g id="bullet-char-template-10132" transform="scale(0.00048828125,-0.00048828125)">
   <path d="M 2015,739 L 1276,0 717,0 1260,543 174,543 174,936 1260,936 717,1481 1274,1481 2015,739 Z"/>
  </g>
  <g id="bullet-char-template-10007" transform="scale(0.00048828125,-0.00048828125)">
   <path d="M 0,-2 C -7,14 -16,27 -25,37 L 356,567 C 262,823 215,952 215,954 215,979 228,992 255,992 264,992 276,990 289,987 310,991 331,999 354,1012 L 381,999 492,748 772,1049 836,1024 860,1049 C 881,1039 901,1025 922,1006 886,937 835,863 770,784 769,783 710,716 594,584 L 774,223 C 774,196 753,168 711,139 L 727,119 C 717,90 699,76 672,76 641,76 570,178 457,381 L 164,-76 C 142,-110 111,-127 72,-127 30,-127 9,-110 8,-76 1,-67 -2,-52 -2,-32 -2,-23 -1,-13 0,-2 Z"/>
  </g>
  <g id="bullet-char-template-10004" transform="scale(0.00048828125,-0.00048828125)">
   <path d="M 285,-33 C 182,-33 111,30 74,156 52,228 41,333 41,471 41,549 55,616 82,672 116,743 169,778 240,778 293,778 328,747 346,684 L 369,508 C 377,444 397,411 428,410 L 1163,1116 C 1174,1127 1196,1133 1229,1133 1271,1133 1292,1118 1292,1087 L 1292,965 C 1292,929 1282,901 1262,881 L 442,47 C 390,-6 338,-33 285,-33 Z"/>
  </g>
  <g id="bullet-char-template-9679" transform="scale(0.00048828125,-0.00048828125)">
   <path d="M 813,0 C 632,0 489,54 383,161 276,268 223,411 223,592 223,773 276,916 383,1023 489,1130 632,1184 813,1184 992,1184 1136,1130 1245,1023 1353,916 1407,772 1407,592 1407,412 1353,268 1245,161 1136,54 992,0 813,0 Z"/>
  </g>
  <g id="bullet-char-template-8226" transform="scale(0.00048828125,-0.00048828125)">
   <path d="M 346,457 C 273,457 209,483 155,535 101,586 74,649 74,723 74,796 101,859 155,911 209,963 273,989 346,989 419,989 480,963 531,910 582,859 608,796 608,723 608,648 583,586 532,535 482,483 420,457 346,457 Z"/>
  </g>
  <g id="bullet-char-template-8211" transform="scale(0.00048828125,-0.00048828125)">
   <path d="M -4,459 L 1135,459 1135,606 -4,606 -4,459 Z"/>
  </g>
  <g id="bullet-char-template-61548" transform="scale(0.00048828125,-0.00048828125)">
   <path d="M 173,740 C 173,903 231,1043 346,1159 462,1274 601,1332 765,1332 928,1332 1067,1274 1183,1159 1299,1043 1357,903 1357,740 1357,577 1299,437 1183,322 1067,206 928,148 765,148 601,148 462,206 346,322 231,437 173,577 173,740 Z"/>
  </g>
 </defs>
 <defs class="TextEmbeddedBitmaps"/>
 <g>
  <g id="id2" class="Master_Slide">
   <g id="bg-id2" class="Background"/>
   <g id="bo-id2" class="BackgroundObjects"/>
  </g>
 </g>
 <g class="SlideGroup">
  <g>
   <g id="container-id1">
    <g id="id1" class="Slide" clip-path="url(#presentation_clip_path)">
     <g class="Page">
      <g class="Group">
       <g class="com.sun.star.drawing.CustomShape">
        <g id="id3">
         <rect class="BoundingBox" stroke="none" fill="none" x="7482" y="506" width="3241" height="2906"/>
         <path fill="rgb(27,152,224)" stroke="none" d="M 9027,2043 L 7483,676 7633,506 10721,3240 10571,3410 9027,2043 Z"/>
        </g>
       </g>
       <g class="com.sun.star.drawing.CustomShape">
        <g id="id4">
         <rect class="BoundingBox" stroke="none" fill="none" x="7806" y="3455" width="2922" height="2939"/>
         <path fill="rgb(27,152,224)" stroke="none" d="M 9347,5004 L 7967,6393 7806,6233 10565,3456 10726,3615 9347,5004 Z"/>
        </g>
       </g>
       <g class="com.sun.star.drawing.CustomShape">
        <g id="id5">
         <rect class="BoundingBox" stroke="none" fill="none" x="3459" y="5318" width="3969" height="1100"/>
         <path fill="rgb(27,152,224)" stroke="none" d="M 5418,5978 L 3459,5540 3509,5318 7426,6195 7376,6417 5418,5978 Z"/>
        </g>
       </g>
       <g class="com.sun.star.drawing.CustomShape">
        <g id="id6">
         <rect class="BoundingBox" stroke="none" fill="none" x="7017" y="33" width="1415" height="1346"/>
         <path fill="rgb(27,152,224)" stroke="none" d="M 7723,110 C 8080,110 8354,368 8354,705 8354,1042 8080,1301 7723,1301 7366,1301 7093,1042 7093,705 7093,368 7366,110 7723,110 Z M 7093,110 L 7093,110 Z M 8355,1302 L 8355,1302 Z"/>
         <path fill="none" stroke="rgb(255,255,255)" stroke-width="152" stroke-linejoin="round" d="M 7723,110 C 8080,110 8354,368 8354,705 8354,1042 8080,1301 7723,1301 7366,1301 7093,1042 7093,705 7093,368 7366,110 7723,110 Z"/>
        </g>
       </g>
       <g class="com.sun.star.drawing.CustomShape">
        <g id="id7">
         <rect class="BoundingBox" stroke="none" fill="none" x="9836" y="2754" width="1415" height="1344"/>
         <path fill="rgb(27,152,224)" stroke="none" d="M 10542,2830 C 10899,2830 11173,3088 11173,3425 11173,3762 10899,4020 10542,4020 10185,4020 9912,3762 9912,3425 9912,3088 10185,2830 10542,2830 Z M 9912,2830 L 9912,2830 Z M 11174,4021 L 11174,4021 Z"/>
         <path fill="none" stroke="rgb(255,255,255)" stroke-width="152" stroke-linejoin="round" d="M 10542,2830 C 10899,2830 11173,3088 11173,3425 11173,3762 10899,4020 10542,4020 10185,4020 9912,3762 9912,3425 9912,3088 10185,2830 10542,2830 Z"/>
        </g>
       </g>
       <g class="com.sun.star.drawing.CustomShape">
        <g id="id8">
         <rect class="BoundingBox" stroke="none" fill="none" x="7013" y="5671" width="1414" height="1346"/>
         <path fill="rgb(27,152,224)" stroke="none" d="M 7719,5748 C 8076,5748 8349,6006 8349,6343 8349,6680 8076,6939 7719,6939 7362,6939 7089,6680 7089,6343 7089,6006 7362,5748 7719,5748 Z M 7089,5748 L 7089,5748 Z M 8350,6940 L 8350,6940 Z"/>
         <path fill="none" stroke="rgb(255,255,255)" stroke-width="152" stroke-linejoin="round" d="M 7719,5748 C 8076,5748 8349,6006 8349,6343 8349,6680 8076,6939 7719,6939 7362,6939 7089,6680 7089,6343 7089,6006 7362,5748 7719,5748 Z"/>
        </g>
       </g>
       <g class="com.sun.star.drawing.CustomShape">
        <g id="id9">
         <rect class="BoundingBox" stroke="none" fill="none" x="2645" y="4720" width="1415" height="1345"/>
         <path fill="rgb(27,152,224)" stroke="none" d="M 3351,4796 C 3708,4796 3982,5054 3982,5391 3982,5728 3708,5987 3351,5987 2994,5987 2721,5728 2721,5391 2721,5054 2994,4796 3351,4796 Z M 2721,4796 L 2721,4796 Z M 3983,5988 L 3983,5988 Z"/>
         <path fill="none" stroke="rgb(255,255,255)" stroke-width="152" stroke-linejoin="round" d="M 3351,4796 C 3708,4796 3982,5054 3982,5391 3982,5728 3708,5987 3351,5987 2994,5987 2721,5728 2721,5391 2721,5054 2994,4796 3351,4796 Z"/>
        </g>
       </g>
      </g>
      <g class="Group">
       <g class="com.sun.star.drawing.PolyPolygonShape">
        <g id="id10">
         <rect class="BoundingBox" stroke="none" fill="none" x="267" y="2491" width="1030" height="1886"/>
         <path fill="rgb(39,38,53)" stroke="none" d="M 1296,4376 L 267,4376 267,2491 581,2491 581,4082 1296,4082 1296,4376 Z"/>
        </g>
       </g>
       <g class="com.sun.star.drawing.PolyPolygonShape">
        <g id="id11">
         <rect class="BoundingBox" stroke="none" fill="none" x="1653" y="2413" width="373" height="1964"/>
         <path fill="rgb(39,38,53)" stroke="none" d="M 1838,2783 L 1819,2782 1801,2780 1784,2776 1776,2773 1767,2770 1759,2767 1751,2763 1736,2754 1722,2743 1708,2731 1695,2717 1689,2710 1684,2703 1679,2695 1675,2688 1671,2680 1667,2672 1664,2663 1661,2655 1659,2646 1657,2637 1654,2618 1654,2599 1654,2579 1657,2561 1661,2543 1664,2534 1667,2526 1671,2518 1675,2510 1679,2502 1684,2495 1689,2487 1695,2480 1708,2466 1722,2454 1736,2443 1751,2434 1759,2430 1767,2426 1776,2423 1784,2421 1801,2417 1819,2414 1838,2413 1857,2414 1875,2417 1893,2421 1901,2423 1910,2426 1918,2430 1926,2434 1941,2443 1956,2454 1970,2466 1983,2480 1989,2487 1994,2494 1999,2502 2003,2510 2007,2518 2011,2526 2014,2534 2017,2543 2019,2552 2021,2561 2024,2579 2025,2599 2024,2618 2021,2636 2019,2645 2017,2653 2014,2662 2011,2670 2008,2678 2003,2686 1999,2694 1994,2701 1983,2716 1970,2729 1956,2742 1941,2753 1926,2762 1918,2766 1910,2770 1901,2773 1893,2776 1875,2780 1857,2782 1838,2783 Z M 1990,4376 L 1681,4376 1681,3000 1990,3000 1990,4376 Z"/>
        </g>
       </g>
       <g class="com.sun.star.drawing.PolyPolygonShape">
        <g id="id12">
         <rect class="BoundingBox" stroke="none" fill="none" x="2541" y="2389" width="1276" height="2018"/>
         <path fill="rgb(39,38,53)" stroke="none" d="M 2798,4149 L 2803,4145 2851,4376 2542,4376 2542,2390 2851,2390 2803,3271 2798,3267 2815,3231 2832,3198 2852,3166 2873,3137 2895,3111 2919,3086 2945,3064 2972,3045 3000,3027 3030,3012 3062,2999 3095,2989 3129,2981 3165,2975 3203,2971 3242,2970 3308,2973 3339,2977 3370,2982 3399,2989 3428,2997 3456,3006 3482,3017 3508,3030 3533,3043 3557,3059 3580,3076 3603,3094 3624,3114 3644,3135 3664,3158 3700,3207 3730,3259 3757,3315 3778,3375 3795,3438 3806,3506 3814,3576 3816,3651 3813,3733 3805,3812 3792,3886 3774,3956 3750,4023 3721,4085 3687,4143 3647,4197 3626,4223 3603,4246 3579,4268 3555,4289 3529,4307 3503,4324 3475,4340 3447,4354 3417,4366 3387,4377 3356,4386 3323,4393 3290,4399 3256,4403 3184,4406 3149,4405 3116,4402 3085,4397 3054,4390 3025,4381 2998,4370 2971,4357 2947,4342 2923,4325 2901,4305 2881,4284 2861,4261 2843,4236 2827,4209 2812,4180 2798,4149 Z M 2851,3627 L 2851,3805 2852,3838 2857,3870 2863,3901 2873,3931 2885,3959 2900,3986 2918,4011 2938,4035 2961,4057 2973,4067 2985,4076 2998,4085 3011,4092 3024,4099 3038,4106 3052,4111 3066,4116 3081,4120 3096,4123 3127,4128 3160,4129 3180,4129 3199,4127 3217,4125 3235,4121 3253,4117 3270,4112 3286,4105 3302,4098 3317,4090 3332,4081 3346,4071 3360,4059 3373,4047 3386,4034 3398,4020 3410,4005 3421,3989 3432,3973 3441,3955 3450,3937 3466,3897 3479,3854 3489,3807 3496,3757 3500,3704 3502,3647 3501,3600 3497,3556 3490,3515 3481,3476 3469,3441 3455,3408 3446,3392 3437,3378 3428,3364 3418,3350 3407,3338 3396,3326 3384,3315 3372,3305 3359,3296 3346,3288 3333,3280 3319,3273 3305,3267 3290,3262 3275,3257 3259,3254 3243,3251 3226,3249 3191,3247 3154,3249 3118,3254 3101,3258 3085,3262 3069,3268 3053,3274 3038,3281 3023,3289 3009,3298 2995,3307 2982,3318 2969,3329 2956,3341 2945,3354 2923,3382 2904,3411 2888,3443 2874,3476 2864,3511 2857,3548 2853,3587 2851,3627 Z"/>
        </g>
       </g>
       <g class="com.sun.star.drawing.PolyPolygonShape">
        <g id="id13">
         <rect class="BoundingBox" stroke="none" fill="none" x="4310" y="2491" width="1410" height="1886"/>
         <path fill="rgb(27,152,224)" stroke="none" d="M 5718,4376 L 5286,4376 4583,3543 4578,3537 4574,3531 4570,3525 4567,3519 4564,3513 4562,3508 4560,3502 4559,3496 4559,3491 4559,3486 4560,3480 4561,3475 4563,3470 4565,3465 4568,3460 4571,3456 4576,3452 4624,4376 4310,4376 4310,2491 4624,2491 4576,3375 4571,3371 4569,3365 4567,3359 4566,3353 4565,3347 4564,3341 4564,3336 4564,3330 4564,3325 4565,3319 4567,3314 4569,3309 4571,3304 4573,3299 4576,3294 4580,3289 4584,3285 5264,2491 5666,2491 4856,3398 5718,4376 Z"/>
        </g>
       </g>
       <g class="com.sun.star.drawing.PolyPolygonShape">
        <g id="id14">
         <rect class="BoundingBox" stroke="none" fill="none" x="5913" y="2461" width="1554" height="1946"/>
         <path fill="rgb(27,152,224)" stroke="none" d="M 7466,4233 L 7388,4273 7310,4308 7231,4338 7150,4363 7068,4382 6986,4395 6902,4403 6817,4406 6719,4402 6625,4390 6536,4369 6494,4356 6452,4341 6412,4323 6373,4304 6335,4282 6298,4259 6263,4233 6229,4206 6196,4176 6164,4145 6133,4111 6105,4077 6079,4041 6054,4004 6032,3965 6011,3925 5993,3884 5976,3842 5949,3754 5929,3660 5917,3561 5914,3457 5918,3351 5931,3250 5952,3153 5983,3061 6001,3017 6022,2974 6044,2932 6069,2892 6096,2853 6125,2815 6190,2742 6261,2676 6299,2647 6337,2619 6377,2594 6418,2571 6460,2550 6503,2532 6547,2515 6593,2501 6687,2479 6786,2466 6889,2462 6964,2463 7036,2469 7107,2478 7175,2490 7242,2506 7306,2526 7369,2549 7430,2575 7430,2936 7359,2894 7288,2857 7217,2826 7147,2801 7076,2781 7006,2767 6936,2759 6866,2756 6798,2759 6734,2768 6703,2775 6673,2783 6643,2792 6615,2803 6587,2816 6560,2830 6534,2846 6508,2863 6483,2881 6459,2901 6436,2923 6414,2946 6392,2970 6372,2995 6354,3021 6337,3048 6321,3076 6306,3105 6282,3165 6262,3229 6249,3296 6240,3368 6238,3443 6240,3520 6248,3592 6261,3660 6278,3724 6301,3784 6314,3812 6329,3839 6345,3865 6362,3890 6381,3913 6400,3936 6421,3958 6443,3978 6465,3996 6489,4013 6513,4029 6539,4044 6565,4057 6592,4069 6620,4079 6649,4088 6710,4102 6775,4110 6843,4113 6891,4112 6936,4109 6978,4104 7018,4097 7055,4089 7090,4078 7122,4066 7151,4051 7151,3637 6762,3637 6762,3343 7466,3343 7466,4233 Z"/>
        </g>
       </g>
       <g class="com.sun.star.drawing.PolyPolygonShape">
        <g id="id15">
         <rect class="BoundingBox" stroke="none" fill="none" x="8021" y="2491" width="1050" height="1886"/>
         <path fill="rgb(27,152,224)" stroke="none" d="M 9070,4376 L 8021,4376 8021,2491 9030,2491 9030,2786 8335,2786 8335,3272 8978,3272 8978,3565 8335,3565 8335,4082 9070,4082 9070,4376 Z"/>
        </g>
       </g>
      </g>
     </g>
    </g>
   </g>
  </g>
 </g>
</svg>