<?xml version="1.0" encoding="UTF-8"?>
<!DOCTYPE svg PUBLIC "-//W3C//DTD SVG 1.1//EN" "http://www.w3.org/Graphics/SVG/1.1/DTD/svg11.dtd">
<svg version="1.2" width="112.27mm" height="71.12mm" viewBox="0 0 11227 7112" preserveAspectRatio="xMidYMid" fill-rule="evenodd" stroke-width="28.222" stroke-linejoin="round" xmlns="http://www.w3.org/2000/svg" xmlns:ooo="http://xml.openoffice.org/svg/export" xmlns:xlink="http://www.w3.org/1999/xlink" xmlns:presentation="http://sun.com/xmlns/staroffice/presentation" xmlns:smil="http://www.w3.org/2001/SMIL20/" xmlns:anim="urn:oasis:names:tc:opendocument:xmlns:animation:1.0" xml:space="preserve">
 <defs class="ClipPathGroup">
  <clipPath id="presentation_clip_path" clipPathUnits="userSpaceOnUse">
   <rect x="0" y="0" width="11227" height="7112"/>
  </clipPath>
  <clipPath id="presentation_clip_path_shrink" clipPathUnits="userSpaceOnUse">
   <rect x="11" y="7" width="11205" height="7098"/>
  </clipPath>
 </defs>
 <defs class="TextShapeIndex">
  <g ooo:slide="id1" ooo:id-list="id3 id4 id5 id6 id7 id8 id9 id10 id11 id12 id13 id14 id15"/>
 </defs>
 <defs class="EmbeddedBulletChars">
  <g id="bullet-char-template-57356" transform="scale(0.00048828125,-0.00048828125)">
   <path d="M 580,1141 L 1163,571 580,0 -4,571 580,1141 Z"/>
  </g>
  <g id="bullet-char-template-57354" transform="scale(0.00048828125,-0.00048828125)">
   <path d="M 8,1128 L 1137,1128 1137,0 8,0 8,1128 Z"/>
  </g>
  <g id="bullet-char-template-10146" transform="scale(0.00048828125,-0.00048828125)">
   <path d="M 174,0 L 602,739 174,1481 1456,739 174,0 Z M 1358,739 L 309,1346 659,739 1358,739 Z"/>
  </g>
  <g id="bullet-char-template-10132" transform="scale(0.00048828125,-0.00048828125)">
   <path d="M 2015,739 L 1276,0 717,0 1260,543 174,543 174,936 1260,936 717,1481 1274,1481 2015,739 Z"/>
  </g>
  <g id="bullet-char-template-10007" transform="scale(0.00048828125,-0.00048828125)">
   <path d="M 0,-2 C -7,14 -16,27 -25,37 L 356,567 C 262,823 215,952 215,954 215,979 228,992 255,992 264,992 276,990 289,987 310,991 331,999 354,1012 L 381,999 492,748 772,1049 836,1024 860,1049 C 881,1039 901,1025 922,1006 886,937 835,863 770,784 769,783 710,716 594,584 L 774,223 C 774,196 753,168 711,139 L 727,119 C 717,90 699,76 672,76 641,76 570,178 457,381 L 164,-76 C 142,-110 111,-127 72,-127 30,-127 9,-110 8,-76 1,-67 -2,-52 -2,-32 -2,-23 -1,-13 0,-2 Z"/>
  </g>
  <g id="bullet-char-template-10004" transform="scale(0.00048828125,-0.00048828125)">
   <path d="M 285,-33 C 182,-33 111,30 74,156 52,228 41,333 41,471 41,549 55,616 82,672 116,743 169,778 240,778 293,778 328,747 346,684 L 369,508 C 377,444 397,411 428,410 L 1163,1116 C 1174,1127 1196,1133 1229,1133 1271,1133 1292,1118 1292,1087 L 1292,965 C 1292,929 1282,901 1262,881 L 442,47 C 390,-6 338,-33 285,-33 Z"/>
  </g>
  <g id="bullet-char-template-9679" transform="scale(0.00048828125,-0.00048828125)">
   <path d="M 813,0 C 632,0 489,54 383,161 276,268 223,411 223,592 223,773 276,916 383,1023 489,1130 632,1184 813,1184 992,1184 1136,1130 1245,1023 1353,916 1407,772 1407,592 1407,412 1353,268 1245,161 1136,54 992,0 813,0 Z"/>
  </g>
  <g id="bullet-char-template-8226" transform="scale(0.00048828125,-0.00048828125)">
   <path d="M 346,457 C 273,457 209,483 155,535 101,586 74,649 74,723 74,796 101,859 155,911 209,963 273,989 346,989 419,989 480,963 531,910 582,859 608,796 608,723 608,648 583,586 532,535 482,483 420,457 346,457 Z"/>
  </g>
  <g id="bullet-char-template-8211" transform="scale(0.00048828125,-0.00048828125)">
   <path d="M -4,459 L 1135,459 1135,606 -4,606 -4,459 Z"/>
  </g>
  <g id="bullet-char-template-61548" transform="scale(0.00048828125,-0.00048828125)">
   <path d="M 173,740 C 173,903 231,1043 346,1159 462,1274 601,1332 765,1332 928,1332 1067,1274 1183,1159 1299,1043 1357,903 1357,740 1357,577 1299,437 1183,322 1067,206 928,148 765,148 601,148 462,206 346,322 231,437 173,577 173,740 Z"/>
  </g>
 </defs>
 <defs class="TextEmbeddedBitmaps"/>
 <g>
  <g id="id2" class="Master_Slide">
   <g id="bg-id2" class="Background"/>
   <g id="bo-id2" class="BackgroundObjects"/>
  </g>
 </g>
 <g class="SlideGroup">
  <g>
   <g id="container-id1">
    <g id="id1" class="Slide" clip-path="url(#presentation_clip_path)">
     <g class="Page">
      <g class="Group">
       <g class="com.sun.star.drawing.CustomShape">
        <g id="id3">
         <rect class="BoundingBox" stroke="none" fill="none" x="7382" y="506" width="3241" height="2906"/>
         <path fill="rgb(27,152,224)" stroke="none" d="M 8927,2043 L 7383,676 7533,506 10621,3240 10471,3410 8927,2043 Z"/>
        </g>
       </g>
       <g class="com.sun.star.drawing.CustomShape">
        <g id="id4">
         <rect class="BoundingBox" stroke="none" fill="none" x="7706" y="3455" width="2922" height="2939"/>
         <path fill="rgb(27,152,224)" stroke="none" d="M 9247,5004 L 7867,6393 7706,6233 10465,3456 10626,3615 9247,5004 Z"/>
        </g>
       </g>
       <g class="com.sun.star.drawing.CustomShape">
        <g id="id5">
         <rect class="BoundingBox" stroke="none" fill="none" x="3359" y="5318" width="3969" height="1100"/>
         <path fill="rgb(27,152,224)" stroke="none" d="M 5318,5978 L 3359,5540 3409,5318 7326,6195 7276,6417 5318,5978 Z"/>
        </g>
       </g>
       <g class="com.sun.star.drawing.CustomShape">
        <g id="id6">
         <rect class="BoundingBox" stroke="none" fill="none" x="6917" y="33" width="1415" height="1346"/>
         <path fill="rgb(27,152,224)" stroke="none" d="M 7623,110 C 7980,110 8254,368 8254,705 8254,1042 7980,1301 7623,1301 7266,1301 6993,1042 6993,705 6993,368 7266,110 7623,110 Z M 6993,110 L 6993,110 Z M 8255,1302 L 8255,1302 Z"/>
         <path fill="none" stroke="rgb(255,255,255)" stroke-width="152" stroke-linejoin="round" d="M 7623,110 C 7980,110 8254,368 8254,705 8254,1042 7980,1301 7623,1301 7266,1301 6993,1042 6993,705 6993,368 7266,110 7623,110 Z"/>
        </g>
       </g>
       <g class="com.sun.star.drawing.CustomShape">
        <g id="id7">
         <rect class="BoundingBox" stroke="none" fill="none" x="9736" y="2754" width="1415" height="1344"/>
         <path fill="rgb(27,152,224)" stroke="none" d="M 10442,2830 C 10799,2830 11073,3088 11073,3425 11073,3762 10799,4020 10442,4020 10085,4020 9812,3762 9812,3425 9812,3088 10085,2830 10442,2830 Z M 9812,2830 L 9812,2830 Z M 11074,4021 L 11074,4021 Z"/>
         <path fill="none" stroke="rgb(255,255,255)" stroke-width="152" stroke-linejoin="round" d="M 10442,2830 C 10799,2830 11073,3088 11073,3425 11073,3762 10799,4020 10442,4020 10085,4020 9812,3762 9812,3425 9812,3088 10085,2830 10442,2830 Z"/>
        </g>
       </g>
       <g class="com.sun.star.drawing.CustomShape">
        <g id="id8">
         <rect class="BoundingBox" stroke="none" fill="none" x="6913" y="5671" width="1414" height="1346"/>
         <path fill="rgb(27,152,224)" stroke="none" d="M 7619,5748 C 7976,5748 8249,6006 8249,6343 8249,6680 7976,6939 7619,6939 7262,6939 6989,6680 6989,6343 6989,6006 7262,5748 7619,5748 Z M 6989,5748 L 6989,5748 Z M 8250,6940 L 8250,6940 Z"/>
         <path fill="none" stroke="rgb(255,255,255)" stroke-width="152" stroke-linejoin="round" d="M 7619,5748 C 7976,5748 8249,6006 8249,6343 8249,6680 7976,6939 7619,6939 7262,6939 6989,6680 6989,6343 6989,6006 7262,5748 7619,5748 Z"/>
        </g>
       </g>
       <g class="com.sun.star.drawing.CustomShape">
        <g id="id9">
         <rect class="BoundingBox" stroke="none" fill="none" x="2545" y="4720" width="1415" height="1345"/>
         <path fill="rgb(27,152,224)" stroke="none" d="M 3251,4796 C 3608,4796 3882,5054 3882,5391 3882,5728 3608,5987 3251,5987 2894,5987 2621,5728 2621,5391 2621,5054 2894,4796 3251,4796 Z M 2621,4796 L 2621,4796 Z M 3883,5988 L 3883,5988 Z"/>
         <path fill="none" stroke="rgb(255,255,255)" stroke-width="152" stroke-linejoin="round" d="M 3251,4796 C 3608,4796 3882,5054 3882,5391 3882,5728 3608,5987 3251,5987 2894,5987 2621,5728 2621,5391 2621,5054 2894,4796 3251,4796 Z"/>
        </g>
       </g>
      </g>
      <g class="Group">
       <g class="com.sun.star.drawing.ClosedBezierShape">
        <g id="id10">
         <rect class="BoundingBox" stroke="none" fill="none" x="467" y="2512" width="1030" height="1886"/>
         <path fill="rgb(39,38,53)" stroke="none" d="M 1496,4397 C 1153,4397 810,4397 467,4397 467,3769 467,3140 467,2512 572,2512 677,2512 781,2512 781,3042 781,3572 781,4103 1019,4103 1258,4103 1496,4103 1496,4201 1496,4299 1496,4397 Z"/>
        </g>
       </g>
       <g class="com.sun.star.drawing.ClosedBezierShape">
        <g id="id11">
         <rect class="BoundingBox" stroke="none" fill="none" x="1782" y="2434" width="373" height="1964"/>
         <path fill="rgb(39,38,53)" stroke="none" d="M 1967,2804 C 1916,2804 1873,2787 1837,2752 1801,2717 1783,2673 1783,2620 1783,2567 1801,2523 1837,2487 1873,2452 1916,2434 1967,2434 2018,2434 2062,2452 2099,2487 2136,2523 2154,2567 2154,2620 2154,2671 2136,2715 2099,2750 2063,2786 2019,2804 1967,2804 Z M 2119,4397 L 1810,4397 1810,3021 2119,3021 2119,4397 Z"/>
        </g>
       </g>
       <g class="com.sun.star.drawing.ClosedBezierShape">
        <g id="id12">
         <rect class="BoundingBox" stroke="none" fill="none" x="2599" y="2410" width="1276" height="2018"/>
         <path fill="rgb(39,38,53)" stroke="none" d="M 2856,4170 L 2861,4166 2909,4397 2600,4397 2600,2411 2909,2411 2861,3292 2856,3288 C 2939,3090 3087,2991 3300,2991 3480,2991 3620,3054 3722,3179 3823,3304 3874,3468 3874,3672 3874,3897 3818,4079 3705,4218 3593,4357 3438,4427 3242,4427 3054,4427 2926,4341 2856,4170 Z M 2909,3648 L 2909,3826 C 2909,3917 2938,3994 2996,4056 3055,4119 3129,4150 3218,4150 3324,4150 3407,4109 3468,4026 3529,3944 3560,3824 3560,3668 3560,3539 3532,3440 3476,3371 3420,3303 3344,3268 3249,3268 3147,3268 3065,3304 3003,3375 2940,3446 2909,3537 2909,3648 Z"/>
        </g>
       </g>
       <g class="com.sun.star.drawing.ClosedBezierShape">
        <g id="id13">
         <rect class="BoundingBox" stroke="none" fill="none" x="4297" y="2512" width="1410" height="1886"/>
         <path fill="rgb(27,152,224)" stroke="none" d="M 5705,4397 L 5273,4397 4570,3564 C 4542,3531 4538,3502 4558,3477 L 4563,3473 4611,4397 4297,4397 4297,2512 4611,2512 4563,3396 4558,3392 C 4545,3359 4549,3330 4571,3306 L 5251,2512 5653,2512 4843,3419 5705,4397 Z"/>
        </g>
       </g>
       <g class="com.sun.star.drawing.ClosedBezierShape">
        <g id="id14">
         <rect class="BoundingBox" stroke="none" fill="none" x="5829" y="2482" width="1554" height="1946"/>
         <path fill="rgb(27,152,224)" stroke="none" d="M 7382,4254 C 7177,4369 6961,4427 6733,4427 6464,4427 6247,4340 6080,4166 5913,3991 5830,3762 5830,3478 5830,3189 5922,2950 6106,2763 6290,2576 6523,2483 6805,2483 7007,2483 7187,2521 7346,2596 L 7346,2957 C 7156,2837 6968,2777 6782,2777 6598,2777 6447,2840 6330,2967 6212,3093 6154,3259 6154,3464 6154,3675 6208,3839 6316,3957 6425,4075 6572,4134 6759,4134 6889,4134 6992,4113 7067,4072 L 7067,3658 6678,3658 6678,3364 7382,3364 7382,4254 Z"/>
        </g>
       </g>
       <g class="com.sun.star.drawing.ClosedBezierShape">
        <g id="id15">
         <rect class="BoundingBox" stroke="none" fill="none" x="7866" y="2512" width="1050" height="1886"/>
         <path fill="rgb(27,152,224)" stroke="none" d="M 8915,4397 C 8565,4397 8216,4397 7866,4397 7866,3769 7866,3140 7866,2512 8202,2512 8539,2512 8875,2512 8875,2610 8875,2708 8875,2807 8643,2807 8412,2807 8180,2807 8180,2969 8180,3131 8180,3293 8394,3293 8609,3293 8823,3293 8823,3391 8823,3488 8823,3586 8609,3586 8394,3586 8180,3586 8180,3758 8180,3930 8180,4103 8425,4103 8670,4103 8915,4103 8915,4201 8915,4299 8915,4397 Z"/>
        </g>
       </g>
      </g>
     </g>
    </g>
   </g>
  </g>
 </g>
</svg>