<?xml version="1.0" encoding="UTF-8"?>
<!DOCTYPE svg PUBLIC "-//W3C//DTD SVG 1.1//EN" "http://www.w3.org/Graphics/SVG/1.1/DTD/svg11.dtd">
<svg version="1.2" width="584.2mm" height="71.12mm" viewBox="0 0 58420 7112" preserveAspectRatio="xMidYMid" fill-rule="evenodd" stroke-width="28.222" stroke-linejoin="round" xmlns="http://www.w3.org/2000/svg" xmlns:ooo="http://xml.openoffice.org/svg/export" xmlns:xlink="http://www.w3.org/1999/xlink" xmlns:presentation="http://sun.com/xmlns/staroffice/presentation" xmlns:smil="http://www.w3.org/2001/SMIL20/" xmlns:anim="urn:oasis:names:tc:opendocument:xmlns:animation:1.0" xml:space="preserve">
 <defs class="ClipPathGroup">
  <clipPath id="presentation_clip_path" clipPathUnits="userSpaceOnUse">
   <rect x="0" y="0" width="58420" height="7112"/>
  </clipPath>
  <clipPath id="presentation_clip_path_shrink" clipPathUnits="userSpaceOnUse">
   <rect x="58" y="7" width="58304" height="7098"/>
  </clipPath>
 </defs>
 <defs class="TextShapeIndex">
  <g ooo:slide="id1" ooo:id-list="id3 id4 id5 id6 id7 id8 id9 id10 id11 id12 id13 id14 id15 id16 id17 id18 id19 id20 id21 id22 id23 id24 id25 id26 id27 id28 id29 id30 id31 id32 id33 id34 id35 id36 id37 id38 id39 id40 id41 id42 id43 id44 id45 id46"/>
 </defs>
 <defs class="EmbeddedBulletChars">
  <g id="bullet-char-template-57356" transform="scale(0.00048828125,-0.00048828125)">
   <path d="M 580,1141 L 1163,571 580,0 -4,571 580,1141 Z"/>
  </g>
  <g id="bullet-char-template-57354" transform="scale(0.00048828125,-0.00048828125)">
   <path d="M 8,1128 L 1137,1128 1137,0 8,0 8,1128 Z"/>
  </g>
  <g id="bullet-char-template-10146" transform="scale(0.00048828125,-0.00048828125)">
   <path d="M 174,0 L 602,739 174,1481 1456,739 174,0 Z M 1358,739 L 309,1346 659,739 1358,739 Z"/>
  </g>
  <g id="bullet-char-template-10132" transform="scale(0.00048828125,-0.00048828125)">
   <path d="M 2015,739 L 1276,0 717,0 1260,543 174,543 174,936 1260,936 717,1481 1274,1481 2015,739 Z"/>
  </g>
  <g id="bullet-char-template-10007" transform="scale(0.00048828125,-0.00048828125)">
   <path d="M 0,-2 C -7,14 -16,27 -25,37 L 356,567 C 262,823 215,952 215,954 215,979 228,992 255,992 264,992 276,990 289,987 310,991 331,999 354,1012 L 381,999 492,748 772,1049 836,1024 860,1049 C 881,1039 901,1025 922,1006 886,937 835,863 770,784 769,783 710,716 594,584 L 774,223 C 774,196 753,168 711,139 L 727,119 C 717,90 699,76 672,76 641,76 570,178 457,381 L 164,-76 C 142,-110 111,-127 72,-127 30,-127 9,-110 8,-76 1,-67 -2,-52 -2,-32 -2,-23 -1,-13 0,-2 Z"/>
  </g>
  <g id="bullet-char-template-10004" transform="scale(0.00048828125,-0.00048828125)">
   <path d="M 285,-33 C 182,-33 111,30 74,156 52,228 41,333 41,471 41,549 55,616 82,672 116,743 169,778 240,778 293,778 328,747 346,684 L 369,508 C 377,444 397,411 428,410 L 1163,1116 C 1174,1127 1196,1133 1229,1133 1271,1133 1292,1118 1292,1087 L 1292,965 C 1292,929 1282,901 1262,881 L 442,47 C 390,-6 338,-33 285,-33 Z"/>
  </g>
  <g id="bullet-char-template-9679" transform="scale(0.00048828125,-0.00048828125)">
   <path d="M 813,0 C 632,0 489,54 383,161 276,268 223,411 223,592 223,773 276,916 383,1023 489,1130 632,1184 813,1184 992,1184 1136,1130 1245,1023 1353,916 1407,772 1407,592 1407,412 1353,268 1245,161 1136,54 992,0 813,0 Z"/>
  </g>
  <g id="bullet-char-template-8226" transform="scale(0.00048828125,-0.00048828125)">
   <path d="M 346,457 C 273,457 209,483 155,535 101,586 74,649 74,723 74,796 101,859 155,911 209,963 273,989 346,989 419,989 480,963 531,910 582,859 608,796 608,723 608,648 583,586 532,535 482,483 420,457 346,457 Z"/>
  </g>
  <g id="bullet-char-template-8211" transform="scale(0.00048828125,-0.00048828125)">
   <path d="M -4,459 L 1135,459 1135,606 -4,606 -4,459 Z"/>
  </g>
  <g id="bullet-char-template-61548" transform="scale(0.00048828125,-0.00048828125)">
   <path d="M 173,740 C 173,903 231,1043 346,1159 462,1274 601,1332 765,1332 928,1332 1067,1274 1183,1159 1299,1043 1357,903 1357,740 1357,577 1299,437 1183,322 1067,206 928,148 765,148 601,148 462,206 346,322 231,437 173,577 173,740 Z"/>
  </g>
 </defs>
 <defs class="TextEmbeddedBitmaps"/>
 <g>
  <g id="id2" class="Master_Slide">
   <g id="bg-id2" class="Background"/>
   <g id="bo-id2" class="BackgroundObjects"/>
  </g>
 </g>
 <g class="SlideGroup">
  <g>
   <g id="container-id1">
    <g id="id1" class="Slide" clip-path="url(#presentation_clip_path)">
     <g class="Page">
      <g class="Group">
       <g class="com.sun.star.drawing.CustomShape">
        <g id="id3">
         <rect class="BoundingBox" stroke="none" fill="none" x="7782" y="506" width="3241" height="2906"/>
         <path fill="rgb(27,152,224)" stroke="none" d="M 9327,2043 L 7783,676 7933,506 11021,3240 10871,3410 9327,2043 Z"/>
        </g>
       </g>
       <g class="com.sun.star.drawing.CustomShape">
        <g id="id4">
         <rect class="BoundingBox" stroke="none" fill="none" x="8106" y="3455" width="2922" height="2939"/>
         <path fill="rgb(27,152,224)" stroke="none" d="M 9647,5004 L 8267,6393 8106,6233 10865,3456 11026,3615 9647,5004 Z"/>
        </g>
       </g>
       <g class="com.sun.star.drawing.CustomShape">
        <g id="id5">
         <rect class="BoundingBox" stroke="none" fill="none" x="3759" y="5318" width="3969" height="1100"/>
         <path fill="rgb(27,152,224)" stroke="none" d="M 5718,5978 L 3759,5540 3809,5318 7726,6195 7676,6417 5718,5978 Z"/>
        </g>
       </g>
       <g class="com.sun.star.drawing.CustomShape">
        <g id="id6">
         <rect class="BoundingBox" stroke="none" fill="none" x="7317" y="33" width="1416" height="1346"/>
         <path fill="rgb(27,152,224)" stroke="none" d="M 8023,110 C 8380,110 8654,368 8654,705 8654,1042 8380,1301 8023,1301 7666,1301 7393,1042 7393,705 7393,368 7666,110 8023,110 Z M 7393,110 L 7393,110 Z M 8655,1302 L 8655,1302 Z"/>
         <path fill="none" stroke="rgb(255,255,255)" stroke-width="152" stroke-linejoin="round" d="M 8023,110 C 8380,110 8654,368 8654,705 8654,1042 8380,1301 8023,1301 7666,1301 7393,1042 7393,705 7393,368 7666,110 8023,110 Z"/>
        </g>
       </g>
       <g class="com.sun.star.drawing.CustomShape">
        <g id="id7">
         <rect class="BoundingBox" stroke="none" fill="none" x="10136" y="2754" width="1416" height="1344"/>
         <path fill="rgb(27,152,224)" stroke="none" d="M 10842,2830 C 11199,2830 11473,3088 11473,3425 11473,3762 11199,4020 10842,4020 10485,4020 10212,3762 10212,3425 10212,3088 10485,2830 10842,2830 Z M 10212,2830 L 10212,2830 Z M 11474,4021 L 11474,4021 Z"/>
         <path fill="none" stroke="rgb(255,255,255)" stroke-width="152" stroke-linejoin="round" d="M 10842,2830 C 11199,2830 11473,3088 11473,3425 11473,3762 11199,4020 10842,4020 10485,4020 10212,3762 10212,3425 10212,3088 10485,2830 10842,2830 Z"/>
        </g>
       </g>
       <g class="com.sun.star.drawing.CustomShape">
        <g id="id8">
         <rect class="BoundingBox" stroke="none" fill="none" x="7313" y="5671" width="1414" height="1346"/>
         <path fill="rgb(27,152,224)" stroke="none" d="M 8019,5748 C 8376,5748 8649,6006 8649,6343 8649,6680 8376,6939 8019,6939 7662,6939 7389,6680 7389,6343 7389,6006 7662,5748 8019,5748 Z M 7389,5748 L 7389,5748 Z M 8650,6940 L 8650,6940 Z"/>
         <path fill="none" stroke="rgb(255,255,255)" stroke-width="152" stroke-linejoin="round" d="M 8019,5748 C 8376,5748 8649,6006 8649,6343 8649,6680 8376,6939 8019,6939 7662,6939 7389,6680 7389,6343 7389,6006 7662,5748 8019,5748 Z"/>
        </g>
       </g>
       <g class="com.sun.star.drawing.CustomShape">
        <g id="id9">
         <rect class="BoundingBox" stroke="none" fill="none" x="2945" y="4720" width="1415" height="1345"/>
         <path fill="rgb(27,152,224)" stroke="none" d="M 3651,4796 C 4008,4796 4282,5054 4282,5391 4282,5728 4008,5987 3651,5987 3294,5987 3021,5728 3021,5391 3021,5054 3294,4796 3651,4796 Z M 3021,4796 L 3021,4796 Z M 4283,5988 L 4283,5988 Z"/>
         <path fill="none" stroke="rgb(255,255,255)" stroke-width="152" stroke-linejoin="round" d="M 3651,4796 C 4008,4796 4282,5054 4282,5391 4282,5728 4008,5987 3651,5987 3294,5987 3021,5728 3021,5391 3021,5054 3294,4796 3651,4796 Z"/>
        </g>
       </g>
      </g>
      <g class="Group">
       <g class="com.sun.star.drawing.PolyPolygonShape">
        <g id="id10">
         <rect class="BoundingBox" stroke="none" fill="none" x="867" y="2512" width="1030" height="1886"/>
         <path fill="rgb(39,38,53)" stroke="none" d="M 1896,4397 L 867,4397 867,2512 1181,2512 1181,4103 1896,4103 1896,4397 Z"/>
        </g>
       </g>
       <g class="com.sun.star.drawing.PolyPolygonShape">
        <g id="id11">
         <rect class="BoundingBox" stroke="none" fill="none" x="2182" y="2434" width="373" height="1964"/>
         <path fill="rgb(39,38,53)" stroke="none" d="M 2367,2804 L 2348,2803 2330,2801 2313,2797 2305,2794 2296,2791 2288,2788 2280,2784 2265,2775 2251,2764 2237,2752 2224,2738 2218,2731 2213,2724 2208,2716 2204,2709 2200,2701 2196,2693 2193,2684 2190,2676 2188,2667 2186,2658 2183,2639 2183,2620 2183,2600 2186,2582 2190,2564 2193,2555 2196,2547 2200,2539 2204,2531 2208,2523 2213,2516 2218,2508 2224,2501 2237,2487 2251,2475 2265,2464 2280,2455 2288,2451 2296,2447 2305,2444 2313,2442 2330,2438 2348,2435 2367,2434 2386,2435 2404,2438 2422,2442 2430,2444 2439,2447 2447,2451 2455,2455 2470,2464 2485,2475 2499,2487 2512,2501 2518,2508 2523,2515 2528,2523 2532,2531 2536,2539 2540,2547 2543,2555 2546,2564 2548,2573 2550,2582 2553,2600 2554,2620 2553,2639 2550,2657 2548,2666 2546,2674 2543,2683 2540,2691 2537,2699 2532,2707 2528,2715 2523,2722 2512,2737 2499,2750 2485,2763 2470,2774 2455,2783 2447,2787 2439,2791 2430,2794 2422,2797 2404,2801 2386,2803 2367,2804 Z M 2519,4397 L 2210,4397 2210,3021 2519,3021 2519,4397 Z"/>
        </g>
       </g>
       <g class="com.sun.star.drawing.PolyPolygonShape">
        <g id="id12">
         <rect class="BoundingBox" stroke="none" fill="none" x="2999" y="2410" width="1276" height="2018"/>
         <path fill="rgb(39,38,53)" stroke="none" d="M 3256,4170 L 3261,4166 3309,4397 3000,4397 3000,2411 3309,2411 3261,3292 3256,3288 3273,3252 3290,3219 3310,3187 3331,3158 3353,3132 3377,3107 3403,3085 3430,3066 3458,3048 3488,3033 3520,3020 3553,3010 3587,3002 3623,2996 3661,2992 3700,2991 3766,2994 3797,2998 3828,3003 3857,3010 3886,3018 3914,3027 3940,3038 3966,3051 3991,3064 4015,3080 4038,3097 4061,3115 4082,3135 4102,3156 4122,3179 4158,3228 4188,3280 4215,3336 4236,3396 4253,3459 4264,3527 4272,3597 4274,3672 4271,3754 4263,3833 4250,3907 4232,3977 4208,4044 4179,4106 4145,4164 4105,4218 4084,4244 4061,4267 4037,4289 4013,4310 3987,4328 3961,4345 3933,4361 3905,4375 3875,4387 3845,4398 3814,4407 3781,4414 3748,4420 3714,4424 3642,4427 3607,4426 3574,4423 3543,4418 3512,4411 3483,4402 3456,4391 3429,4378 3405,4363 3381,4346 3359,4326 3339,4305 3319,4282 3301,4257 3285,4230 3270,4201 3256,4170 Z M 3309,3648 L 3309,3826 3310,3859 3315,3891 3321,3922 3331,3952 3343,3980 3358,4007 3376,4032 3396,4056 3419,4078 3431,4088 3443,4097 3456,4106 3469,4113 3482,4120 3496,4127 3510,4132 3524,4137 3539,4141 3554,4144 3585,4149 3618,4150 3638,4150 3657,4148 3675,4146 3693,4142 3711,4138 3728,4133 3744,4126 3760,4119 3775,4111 3790,4102 3804,4092 3818,4080 3831,4068 3844,4055 3856,4041 3868,4026 3879,4010 3890,3994 3899,3976 3908,3958 3924,3918 3937,3875 3947,3828 3954,3778 3958,3725 3960,3668 3959,3621 3955,3577 3948,3536 3939,3497 3927,3462 3913,3429 3904,3413 3895,3399 3886,3385 3876,3371 3865,3359 3854,3347 3842,3336 3830,3326 3817,3317 3804,3309 3791,3301 3777,3294 3763,3288 3748,3283 3733,3278 3717,3275 3701,3272 3684,3270 3649,3268 3612,3270 3576,3275 3559,3279 3543,3283 3527,3289 3511,3295 3496,3302 3481,3310 3467,3319 3453,3328 3440,3339 3427,3350 3414,3362 3403,3375 3381,3403 3362,3432 3346,3464 3332,3497 3322,3532 3315,3569 3311,3608 3309,3648 Z"/>
        </g>
       </g>
       <g class="com.sun.star.drawing.PolyPolygonShape">
        <g id="id13">
         <rect class="BoundingBox" stroke="none" fill="none" x="4697" y="2512" width="1410" height="1886"/>
         <path fill="rgb(27,152,224)" stroke="none" d="M 6105,4397 L 5673,4397 4970,3564 4965,3558 4961,3552 4957,3546 4954,3540 4951,3534 4949,3529 4947,3523 4946,3517 4946,3512 4946,3507 4947,3501 4948,3496 4950,3491 4952,3486 4955,3481 4958,3477 4963,3473 5011,4397 4697,4397 4697,2512 5011,2512 4963,3396 4958,3392 4956,3386 4954,3380 4953,3374 4952,3368 4951,3362 4951,3357 4951,3351 4951,3346 4952,3340 4954,3335 4956,3330 4958,3325 4960,3320 4963,3315 4967,3310 4971,3306 5651,2512 6053,2512 5242,3419 6105,4397 Z"/>
        </g>
       </g>
       <g class="com.sun.star.drawing.PolyPolygonShape">
        <g id="id14">
         <rect class="BoundingBox" stroke="none" fill="none" x="6229" y="2482" width="1554" height="1946"/>
         <path fill="rgb(27,152,224)" stroke="none" d="M 7782,4254 L 7704,4294 7626,4329 7547,4359 7466,4384 7384,4403 7302,4416 7218,4424 7133,4427 7035,4423 6941,4411 6852,4390 6810,4377 6768,4362 6728,4344 6689,4325 6651,4303 6614,4280 6579,4254 6545,4227 6512,4197 6480,4166 6449,4132 6421,4098 6395,4062 6370,4025 6348,3986 6327,3946 6309,3905 6292,3863 6265,3775 6245,3681 6233,3582 6230,3478 6234,3372 6247,3271 6268,3174 6299,3082 6317,3038 6338,2995 6360,2953 6385,2913 6412,2874 6441,2836 6506,2763 6577,2697 6615,2668 6653,2640 6693,2615 6734,2592 6776,2571 6819,2553 6863,2536 6909,2522 7003,2500 7102,2487 7205,2483 7280,2484 7352,2490 7423,2499 7491,2511 7558,2527 7622,2547 7685,2570 7746,2596 7746,2957 7675,2915 7604,2878 7533,2847 7463,2822 7392,2802 7322,2788 7252,2780 7182,2777 7114,2780 7050,2789 7019,2796 6989,2804 6959,2813 6931,2824 6903,2837 6876,2851 6850,2867 6824,2884 6799,2902 6775,2922 6752,2944 6730,2967 6708,2991 6688,3016 6670,3042 6653,3069 6637,3097 6622,3126 6598,3186 6578,3250 6565,3317 6556,3389 6554,3464 6556,3541 6564,3613 6577,3681 6594,3745 6617,3805 6630,3833 6645,3860 6661,3886 6678,3911 6697,3934 6716,3957 6737,3979 6759,3999 6781,4017 6805,4034 6829,4050 6855,4065 6881,4078 6908,4090 6936,4100 6965,4109 7026,4123 7091,4131 7159,4134 7207,4133 7252,4130 7294,4125 7334,4118 7371,4110 7406,4099 7438,4087 7467,4072 7467,3658 7078,3658 7078,3364 7782,3364 7782,4254 Z"/>
        </g>
       </g>
       <g class="com.sun.star.drawing.PolyPolygonShape">
        <g id="id15">
         <rect class="BoundingBox" stroke="none" fill="none" x="8266" y="2512" width="1050" height="1886"/>
         <path fill="rgb(27,152,224)" stroke="none" d="M 9315,4397 L 8266,4397 8266,2512 9275,2512 9275,2807 8580,2807 8580,3293 9223,3293 9223,3586 8580,3586 8580,4103 9315,4103 9315,4397 Z"/>
        </g>
       </g>
      </g>
      <g class="Group">
       <g class="com.sun.star.drawing.PolyPolygonShape">
        <g id="id16">
         <rect class="BoundingBox" stroke="none" fill="none" x="12706" y="2551" width="1738" height="1886"/>
         <path fill="rgb(39,38,53)" stroke="none" d="M 14443,4436 L 14098,4436 13910,3937 13230,3937 13052,4436 12706,4436 13429,2551 13717,2551 14443,4436 Z M 13802,3644 L 13550,2957 13548,2952 13547,2946 13546,2940 13545,2933 13545,2926 13545,2919 13546,2903 13549,2886 13554,2868 13560,2847 13567,2826 13572,2826 13580,2846 13586,2865 13590,2883 13593,2900 13594,2916 13594,2924 13594,2931 13593,2938 13592,2945 13590,2951 13588,2957 13338,3644 13802,3644 Z"/>
        </g>
       </g>
       <g class="com.sun.star.drawing.PolyPolygonShape">
        <g id="id17">
         <rect class="BoundingBox" stroke="none" fill="none" x="15311" y="2449" width="1234" height="1988"/>
         <path fill="rgb(39,38,53)" stroke="none" d="M 16544,4436 L 16111,4436 15568,3784 15573,3778 15621,4436 15312,4436 15312,2450 15621,2450 15573,3690 15568,3683 16083,3060 16497,3060 15857,3726 16544,4436 Z"/>
        </g>
       </g>
       <g class="com.sun.star.drawing.PolyPolygonShape">
        <g id="id18">
         <rect class="BoundingBox" stroke="none" fill="none" x="16607" y="3030" width="1162" height="1407"/>
         <path fill="rgb(39,38,53)" stroke="none" d="M 17768,4436 L 17459,4436 17459,3659 17455,3576 17450,3539 17444,3505 17435,3473 17425,3444 17412,3418 17398,3395 17382,3374 17364,3357 17344,3342 17322,3329 17299,3320 17273,3313 17246,3309 17216,3307 17185,3309 17170,3311 17155,3313 17140,3317 17126,3321 17112,3326 17099,3332 17086,3338 17073,3346 17060,3354 17048,3362 17036,3372 17025,3382 17003,3405 16982,3431 16965,3458 16950,3487 16938,3518 16929,3550 16922,3585 16918,3621 16917,3659 16917,4436 16608,4436 16608,3060 16917,3060 16869,3319 16864,3315 16880,3281 16897,3248 16915,3218 16935,3190 16956,3165 16979,3141 17003,3120 17029,3101 17056,3085 17085,3070 17115,3058 17146,3048 17179,3040 17213,3035 17249,3031 17286,3030 17343,3033 17396,3040 17421,3045 17446,3052 17469,3059 17492,3068 17514,3078 17535,3089 17555,3102 17575,3115 17593,3130 17611,3146 17628,3163 17644,3182 17659,3201 17673,3222 17686,3243 17698,3265 17719,3313 17737,3364 17750,3419 17760,3478 17766,3540 17768,3607 17768,4436 Z"/>
        </g>
       </g>
       <g class="com.sun.star.drawing.PolyPolygonShape">
        <g id="id19">
         <rect class="BoundingBox" stroke="none" fill="none" x="17995" y="3030" width="1358" height="1437"/>
         <path fill="rgb(39,38,53)" stroke="none" d="M 18666,4466 L 18591,4463 18521,4454 18454,4439 18423,4429 18392,4418 18362,4405 18333,4390 18304,4374 18277,4357 18251,4338 18226,4317 18202,4296 18178,4272 18156,4247 18135,4222 18116,4195 18098,4167 18082,4139 18067,4110 18053,4079 18041,4048 18021,3982 18007,3913 17998,3840 17995,3763 17998,3680 18007,3601 18022,3527 18043,3458 18055,3425 18069,3393 18085,3362 18102,3333 18121,3304 18141,3277 18162,3251 18185,3226 18209,3202 18235,3180 18261,3159 18288,3140 18317,3123 18346,3107 18376,3092 18408,3079 18440,3068 18474,3058 18543,3042 18617,3033 18695,3030 18770,3033 18841,3042 18907,3057 18939,3067 18969,3078 18999,3091 19028,3105 19055,3121 19082,3138 19107,3156 19131,3177 19155,3198 19177,3221 19198,3246 19218,3271 19236,3298 19253,3326 19269,3354 19283,3384 19307,3447 19327,3515 19340,3587 19348,3663 19351,3743 19348,3822 19339,3898 19325,3969 19304,4037 19278,4100 19263,4130 19246,4160 19228,4188 19208,4215 19187,4242 19164,4267 19140,4291 19116,4314 19090,4335 19063,4354 19035,4372 19007,4388 18977,4403 18946,4416 18915,4428 18882,4438 18814,4454 18742,4463 18666,4466 Z M 18680,3307 L 18639,3309 18599,3314 18580,3319 18562,3324 18544,3330 18527,3336 18510,3344 18494,3353 18478,3362 18463,3373 18449,3384 18435,3397 18422,3410 18409,3424 18397,3439 18386,3455 18375,3471 18365,3488 18356,3506 18348,3525 18334,3565 18323,3608 18315,3654 18311,3703 18309,3756 18311,3806 18316,3853 18323,3897 18334,3938 18349,3977 18357,3995 18366,4012 18376,4029 18386,4045 18398,4061 18410,4075 18423,4089 18436,4102 18450,4114 18465,4125 18480,4135 18495,4145 18511,4153 18528,4161 18545,4167 18563,4173 18581,4178 18600,4182 18639,4187 18680,4189 18722,4187 18762,4182 18780,4178 18798,4173 18816,4168 18833,4161 18849,4154 18865,4146 18879,4137 18894,4127 18908,4116 18921,4104 18933,4092 18945,4078 18956,4064 18966,4049 18976,4033 18985,4016 18993,3998 19001,3980 19014,3941 19024,3898 19031,3852 19035,3803 19037,3751 19035,3697 19031,3648 19024,3601 19014,3558 19001,3518 18985,3482 18976,3465 18966,3449 18956,3434 18945,3419 18933,3406 18920,3393 18907,3381 18894,3370 18879,3360 18864,3351 18849,3343 18833,3335 18816,3329 18798,3323 18780,3318 18762,3314 18722,3309 18680,3307 Z"/>
        </g>
       </g>
       <g class="com.sun.star.drawing.PolyPolygonShape">
        <g id="id20">
         <rect class="BoundingBox" stroke="none" fill="none" x="19413" y="3060" width="1920" height="1377"/>
         <path fill="rgb(39,38,53)" stroke="none" d="M 21332,3060 L 20919,4436 20629,4436 20357,3489 20355,3481 20353,3474 20352,3467 20352,3459 20352,3452 20353,3444 20353,3436 20355,3428 20357,3420 20359,3412 20365,3396 20373,3379 20383,3362 20388,3362 20393,3368 20397,3374 20402,3381 20405,3388 20408,3395 20411,3402 20413,3410 20414,3418 20415,3426 20416,3434 20415,3442 20415,3451 20414,3460 20412,3469 20407,3487 20111,4436 19830,4436 19413,3060 19738,3060 20012,4054 20013,4060 20015,4066 20015,4073 20016,4079 20016,4086 20015,4093 20014,4100 20013,4107 20009,4123 20004,4138 19997,4155 19988,4172 19978,4172 19974,4165 19970,4158 19966,4151 19963,4144 19960,4137 19958,4129 19956,4122 19954,4114 19953,4107 19953,4099 19953,4091 19953,4083 19954,4075 19956,4067 19960,4050 20264,3060 20530,3060 20803,4057 20805,4063 20806,4069 20807,4076 20807,4083 20807,4090 20806,4097 20806,4104 20804,4111 20801,4126 20796,4141 20789,4157 20781,4174 20771,4174 20766,4168 20762,4162 20758,4156 20754,4149 20752,4143 20749,4136 20747,4129 20746,4121 20745,4114 20744,4106 20744,4099 20744,4091 20745,4082 20747,4074 20751,4056 21019,3060 21332,3060 Z"/>
        </g>
       </g>
       <g class="com.sun.star.drawing.PolyPolygonShape">
        <g id="id21">
         <rect class="BoundingBox" stroke="none" fill="none" x="21479" y="2449" width="312" height="1988"/>
         <path fill="rgb(39,38,53)" stroke="none" d="M 21789,4436 L 21480,4436 21480,2450 21789,2450 21789,4436 Z"/>
        </g>
       </g>
       <g class="com.sun.star.drawing.PolyPolygonShape">
        <g id="id22">
         <rect class="BoundingBox" stroke="none" fill="none" x="22042" y="3030" width="1215" height="1437"/>
         <path fill="rgb(39,38,53)" stroke="none" d="M 23255,3852 L 22360,3852 22362,3886 22367,3918 22375,3950 22386,3980 22400,4009 22416,4037 22435,4064 22458,4089 22470,4101 22482,4113 22495,4123 22509,4133 22524,4142 22539,4150 22554,4157 22570,4164 22587,4170 22604,4175 22641,4183 22679,4187 22720,4189 22745,4188 22770,4186 22796,4182 22822,4177 22875,4161 22930,4140 22987,4112 23045,4078 23105,4038 23167,3992 23167,4319 23115,4353 23060,4383 23002,4408 22942,4429 22878,4445 22812,4457 22743,4464 22672,4466 22600,4463 22533,4454 22501,4447 22470,4439 22439,4430 22410,4419 22382,4406 22354,4392 22328,4376 22302,4359 22278,4341 22254,4321 22232,4299 22210,4277 22190,4252 22171,4227 22153,4200 22137,4173 22122,4144 22108,4114 22084,4051 22066,3983 22053,3911 22045,3834 22042,3753 22045,3676 22053,3602 22068,3531 22088,3465 22113,3401 22145,3342 22182,3286 22225,3233 22272,3186 22296,3164 22322,3144 22348,3126 22375,3109 22402,3094 22430,3081 22459,3069 22488,3059 22519,3050 22550,3043 22581,3037 22614,3033 22680,3030 22747,3033 22810,3041 22839,3048 22868,3055 22896,3064 22923,3075 22949,3087 22975,3100 22999,3114 23022,3130 23044,3148 23065,3167 23085,3187 23105,3208 23123,3231 23140,3255 23156,3280 23171,3305 23197,3360 23218,3418 23234,3481 23246,3547 23253,3618 23255,3692 23255,3852 Z M 22941,3574 L 22940,3548 22936,3523 22931,3499 22923,3476 22913,3453 22901,3431 22887,3409 22871,3389 22862,3379 22852,3370 22843,3361 22832,3353 22822,3346 22811,3339 22799,3333 22787,3328 22775,3323 22762,3319 22749,3315 22735,3312 22707,3308 22677,3307 22647,3309 22618,3313 22604,3316 22590,3320 22577,3324 22564,3329 22551,3335 22538,3342 22526,3349 22514,3357 22491,3375 22468,3396 22448,3418 22430,3440 22414,3463 22400,3485 22389,3507 22380,3529 22374,3552 22369,3574 22941,3574 Z"/>
        </g>
       </g>
       <g class="com.sun.star.drawing.PolyPolygonShape">
        <g id="id23">
         <rect class="BoundingBox" stroke="none" fill="none" x="23406" y="2449" width="1278" height="2018"/>
         <path fill="rgb(39,38,53)" stroke="none" d="M 24683,4436 L 24373,4436 24421,4172 24426,4176 24411,4211 24394,4244 24376,4275 24355,4303 24333,4329 24310,4353 24285,4374 24258,4394 24230,4411 24200,4425 24168,4438 24135,4448 24100,4456 24063,4461 24025,4465 23985,4466 23920,4463 23890,4459 23859,4454 23830,4448 23802,4440 23774,4430 23747,4419 23722,4407 23696,4393 23672,4377 23649,4361 23626,4342 23604,4323 23584,4301 23563,4279 23544,4255 23527,4230 23510,4204 23495,4177 23468,4120 23445,4060 23428,3995 23416,3927 23409,3854 23406,3778 23409,3696 23417,3619 23430,3545 23449,3475 23474,3410 23503,3348 23538,3291 23579,3237 23601,3212 23624,3188 23648,3167 23673,3146 23698,3128 23725,3111 23752,3096 23781,3082 23810,3070 23840,3059 23871,3050 23903,3043 23936,3037 23970,3033 24041,3030 24076,3031 24111,3034 24143,3039 24174,3046 24204,3055 24232,3065 24258,3078 24283,3093 24307,3109 24328,3128 24349,3148 24367,3171 24384,3195 24400,3222 24414,3250 24426,3280 24421,3284 24373,2450 24683,2450 24683,4436 Z M 24373,3809 L 24373,3622 24372,3589 24368,3558 24361,3528 24352,3499 24340,3472 24325,3446 24307,3421 24287,3398 24264,3377 24253,3367 24241,3358 24228,3350 24215,3343 24202,3336 24189,3330 24175,3325 24160,3320 24146,3316 24131,3313 24099,3309 24067,3307 24028,3309 24009,3311 23991,3315 23973,3319 23956,3324 23939,3330 23923,3337 23908,3345 23893,3354 23878,3364 23864,3374 23851,3386 23838,3398 23825,3412 23813,3426 23802,3442 23792,3458 23782,3475 23773,3492 23757,3530 23744,3571 23733,3616 23726,3663 23722,3714 23720,3768 23722,3817 23726,3863 23733,3906 23742,3946 23755,3984 23770,4018 23779,4035 23788,4050 23798,4065 23809,4079 23820,4092 23832,4105 23844,4116 23857,4127 23870,4137 23883,4146 23897,4154 23912,4162 23927,4168 23942,4174 23958,4178 23974,4182 23991,4185 24009,4187 24044,4189 24080,4187 24097,4185 24114,4182 24130,4179 24146,4174 24162,4169 24177,4162 24191,4155 24205,4148 24219,4139 24233,4129 24245,4119 24258,4108 24270,4096 24282,4083 24303,4055 24322,4026 24338,3994 24351,3961 24361,3926 24368,3889 24372,3850 24373,3809 Z"/>
        </g>
       </g>
       <g class="com.sun.star.drawing.PolyPolygonShape">
        <g id="id24">
         <rect class="BoundingBox" stroke="none" fill="none" x="24935" y="3030" width="1278" height="2005"/>
         <path fill="rgb(39,38,53)" stroke="none" d="M 26212,4281 L 26209,4373 26200,4458 26186,4537 26166,4611 26141,4678 26110,4740 26073,4796 26031,4846 25983,4890 25929,4928 25870,4960 25805,4987 25735,5008 25658,5022 25577,5031 25489,5034 25427,5032 25367,5027 25307,5019 25249,5007 25191,4991 25135,4972 25079,4950 25024,4924 25024,4599 25093,4635 25159,4667 25221,4694 25280,4716 25337,4733 25390,4745 25440,4752 25487,4755 25537,4753 25584,4748 25628,4739 25669,4727 25706,4711 25740,4692 25771,4669 25798,4643 25823,4613 25844,4580 25862,4544 25876,4504 25888,4460 25896,4413 25901,4363 25902,4309 25950,4175 25955,4179 25940,4213 25922,4246 25903,4276 25883,4304 25861,4330 25837,4354 25812,4375 25785,4394 25757,4411 25727,4426 25695,4438 25662,4448 25627,4456 25591,4462 25553,4465 25514,4466 25450,4463 25419,4459 25390,4454 25361,4448 25332,4440 25305,4430 25278,4419 25252,4407 25227,4393 25203,4378 25180,4361 25157,4343 25135,4324 25114,4302 25094,4280 25075,4256 25057,4232 25040,4206 25024,4179 24997,4124 24975,4064 24957,4001 24945,3934 24938,3863 24935,3789 24938,3705 24946,3626 24959,3551 24977,3480 25001,3413 25030,3351 25065,3292 25084,3265 25105,3238 25126,3213 25149,3190 25173,3168 25197,3147 25223,3129 25249,3111 25277,3096 25306,3082 25335,3070 25366,3059 25397,3051 25430,3043 25463,3038 25498,3033 25570,3030 25605,3031 25638,3034 25671,3039 25701,3046 25730,3055 25758,3065 25785,3078 25809,3093 25833,3109 25855,3128 25875,3148 25894,3171 25912,3195 25928,3222 25942,3250 25955,3280 25950,3284 25902,3060 26212,3060 26212,4281 Z M 25902,3809 L 25902,3622 25901,3590 25897,3559 25890,3529 25881,3501 25868,3474 25853,3448 25836,3423 25815,3399 25793,3378 25781,3368 25769,3359 25757,3351 25744,3343 25731,3336 25717,3330 25704,3325 25690,3320 25675,3316 25660,3313 25630,3309 25598,3307 25559,3309 25540,3311 25521,3315 25503,3319 25486,3324 25469,3330 25453,3337 25437,3345 25422,3354 25407,3364 25393,3375 25380,3386 25367,3399 25354,3412 25342,3427 25331,3442 25321,3459 25311,3476 25302,3494 25286,3532 25273,3574 25262,3619 25255,3668 25251,3720 25249,3775 25251,3822 25255,3867 25262,3909 25271,3948 25284,3985 25299,4019 25308,4035 25317,4050 25327,4065 25338,4079 25349,4092 25361,4105 25373,4116 25385,4127 25398,4137 25412,4146 25426,4154 25440,4162 25455,4168 25470,4174 25485,4178 25501,4182 25518,4185 25535,4187 25570,4189 25606,4187 25623,4185 25640,4182 25656,4179 25672,4174 25688,4169 25703,4163 25718,4156 25732,4148 25746,4139 25760,4130 25773,4120 25786,4109 25798,4097 25810,4084 25821,4070 25831,4057 25841,4042 25850,4027 25866,3996 25879,3963 25889,3927 25897,3890 25901,3850 25902,3809 Z"/>
        </g>
       </g>
       <g class="com.sun.star.drawing.PolyPolygonShape">
        <g id="id25">
         <rect class="BoundingBox" stroke="none" fill="none" x="26465" y="3030" width="1215" height="1437"/>
         <path fill="rgb(39,38,53)" stroke="none" d="M 27678,3852 L 26783,3852 26785,3886 26790,3918 26798,3950 26809,3980 26823,4009 26839,4037 26858,4064 26881,4089 26893,4101 26905,4113 26918,4123 26932,4133 26947,4142 26962,4150 26977,4157 26993,4164 27010,4170 27027,4175 27064,4183 27102,4187 27143,4189 27168,4188 27193,4186 27219,4182 27245,4177 27298,4161 27353,4140 27410,4112 27468,4078 27528,4038 27590,3992 27590,4319 27538,4353 27483,4383 27425,4408 27365,4429 27301,4445 27235,4457 27166,4464 27095,4466 27023,4463 26956,4454 26924,4447 26893,4439 26862,4430 26833,4419 26805,4406 26777,4392 26751,4376 26725,4359 26701,4341 26677,4321 26655,4299 26633,4277 26613,4252 26594,4227 26576,4200 26560,4173 26545,4144 26531,4114 26507,4051 26489,3983 26476,3911 26468,3834 26465,3753 26468,3676 26476,3602 26491,3531 26511,3465 26536,3401 26568,3342 26605,3286 26648,3233 26695,3186 26719,3164 26745,3144 26771,3126 26798,3109 26825,3094 26853,3081 26882,3069 26911,3059 26942,3050 26973,3043 27004,3037 27037,3033 27103,3030 27170,3033 27233,3041 27262,3048 27291,3055 27319,3064 27346,3075 27372,3087 27398,3100 27422,3114 27445,3130 27467,3148 27488,3167 27508,3187 27528,3208 27546,3231 27563,3255 27579,3280 27594,3305 27620,3360 27641,3418 27657,3481 27669,3547 27676,3618 27678,3692 27678,3852 Z M 27364,3574 L 27363,3548 27359,3523 27354,3499 27346,3476 27336,3453 27324,3431 27310,3409 27294,3389 27285,3379 27275,3370 27266,3361 27255,3353 27245,3346 27234,3339 27222,3333 27210,3328 27198,3323 27185,3319 27172,3315 27158,3312 27130,3308 27100,3307 27070,3309 27041,3313 27027,3316 27013,3320 27000,3324 26987,3329 26974,3335 26961,3342 26949,3349 26937,3357 26914,3375 26891,3396 26871,3418 26853,3440 26837,3463 26823,3485 26812,3507 26803,3529 26797,3552 26792,3574 27364,3574 Z"/>
        </g>
       </g>
       <g class="com.sun.star.drawing.PolyPolygonShape">
        <g id="id26">
         <rect class="BoundingBox" stroke="none" fill="none" x="28558" y="3030" width="1278" height="2005"/>
         <path fill="rgb(39,38,53)" stroke="none" d="M 29835,4281 L 29832,4373 29823,4458 29809,4537 29789,4611 29764,4678 29733,4740 29696,4796 29654,4846 29606,4890 29552,4928 29493,4960 29428,4987 29358,5008 29281,5022 29200,5031 29112,5034 29050,5032 28990,5027 28930,5019 28872,5007 28814,4991 28758,4972 28702,4950 28647,4924 28647,4599 28716,4635 28782,4667 28844,4694 28903,4716 28960,4733 29013,4745 29063,4752 29110,4755 29160,4753 29207,4748 29251,4739 29292,4727 29329,4711 29363,4692 29394,4669 29421,4643 29446,4613 29467,4580 29485,4544 29499,4504 29511,4460 29519,4413 29524,4363 29525,4309 29573,4175 29578,4179 29563,4213 29545,4246 29526,4276 29506,4304 29484,4330 29460,4354 29435,4375 29408,4394 29380,4411 29350,4426 29318,4438 29285,4448 29250,4456 29214,4462 29176,4465 29137,4466 29073,4463 29042,4459 29013,4454 28984,4448 28955,4440 28928,4430 28901,4419 28875,4407 28850,4393 28826,4378 28803,4361 28780,4343 28758,4324 28737,4302 28717,4280 28698,4256 28680,4232 28663,4206 28647,4179 28620,4124 28598,4064 28580,4001 28568,3934 28561,3863 28558,3789 28561,3705 28569,3626 28582,3551 28600,3480 28624,3413 28653,3351 28688,3292 28707,3265 28728,3238 28749,3213 28772,3190 28796,3168 28820,3147 28846,3129 28872,3111 28900,3096 28929,3082 28958,3070 28989,3059 29020,3051 29053,3043 29086,3038 29121,3033 29193,3030 29228,3031 29261,3034 29294,3039 29324,3046 29353,3055 29381,3065 29408,3078 29432,3093 29456,3109 29478,3128 29498,3148 29517,3171 29535,3195 29551,3222 29565,3250 29578,3280 29573,3284 29525,3060 29835,3060 29835,4281 Z M 29525,3809 L 29525,3622 29524,3590 29520,3559 29513,3529 29504,3501 29491,3474 29476,3448 29459,3423 29438,3399 29416,3378 29404,3368 29392,3359 29380,3351 29367,3343 29354,3336 29340,3330 29327,3325 29313,3320 29298,3316 29283,3313 29253,3309 29221,3307 29182,3309 29163,3311 29144,3315 29126,3319 29109,3324 29092,3330 29076,3337 29060,3345 29045,3354 29030,3364 29016,3375 29003,3386 28990,3399 28977,3412 28965,3427 28954,3442 28944,3459 28934,3476 28925,3494 28909,3532 28896,3574 28885,3619 28878,3668 28874,3720 28872,3775 28874,3822 28878,3867 28885,3909 28894,3948 28907,3985 28922,4019 28931,4035 28940,4050 28950,4065 28961,4079 28972,4092 28984,4105 28996,4116 29008,4127 29021,4137 29035,4146 29049,4154 29063,4162 29078,4168 29093,4174 29108,4178 29124,4182 29141,4185 29158,4187 29193,4189 29229,4187 29246,4185 29263,4182 29279,4179 29295,4174 29311,4169 29326,4163 29341,4156 29355,4148 29369,4139 29383,4130 29396,4120 29409,4109 29421,4097 29433,4084 29444,4070 29454,4057 29464,4042 29473,4027 29489,3996 29502,3963 29512,3927 29520,3890 29524,3850 29525,3809 Z"/>
        </g>
       </g>
       <g class="com.sun.star.drawing.PolyPolygonShape">
        <g id="id27">
         <rect class="BoundingBox" stroke="none" fill="none" x="30174" y="3037" width="770" height="1400"/>
         <path fill="rgb(39,38,53)" stroke="none" d="M 30943,3426 L 30913,3404 30883,3385 30856,3368 30829,3355 30804,3344 30780,3337 30769,3334 30758,3332 30747,3331 30736,3331 30724,3331 30711,3333 30699,3335 30687,3338 30675,3341 30663,3346 30652,3351 30640,3357 30629,3364 30619,3372 30608,3381 30598,3390 30578,3411 30559,3436 30550,3449 30541,3463 30526,3494 30513,3527 30503,3563 30495,3602 30489,3644 30485,3688 30484,3736 30484,4436 30175,4436 30175,3060 30484,3060 30436,3370 30431,3368 30433,3330 30439,3294 30443,3276 30447,3260 30453,3244 30459,3228 30466,3213 30474,3199 30482,3185 30491,3172 30501,3159 30512,3147 30524,3135 30536,3124 30562,3104 30589,3086 30617,3072 30646,3059 30675,3050 30705,3043 30737,3039 30769,3038 30791,3038 30813,3040 30835,3043 30857,3047 30879,3051 30900,3057 30922,3064 30943,3072 30943,3426 Z"/>
        </g>
       </g>
       <g class="com.sun.star.drawing.PolyPolygonShape">
        <g id="id28">
         <rect class="BoundingBox" stroke="none" fill="none" x="30999" y="3030" width="1111" height="1437"/>
         <path fill="rgb(39,38,53)" stroke="none" d="M 32109,4436 L 31800,4436 31848,4190 31852,4193 31838,4226 31823,4257 31806,4286 31788,4313 31768,4337 31747,4360 31724,4380 31700,4398 31675,4414 31648,4428 31619,4439 31590,4449 31559,4456 31526,4462 31492,4465 31457,4466 31406,4464 31357,4459 31311,4450 31268,4437 31228,4421 31208,4411 31190,4401 31172,4390 31155,4378 31139,4365 31123,4351 31108,4336 31094,4321 31081,4305 31069,4288 31058,4271 31048,4254 31039,4235 31030,4217 31023,4197 31017,4177 31007,4136 31002,4092 31000,4046 31001,3997 31007,3951 31016,3907 31029,3866 31045,3827 31065,3792 31089,3759 31116,3728 31147,3700 31181,3675 31219,3652 31261,3632 31306,3615 31355,3601 31408,3588 31464,3579 31800,3532 31799,3505 31796,3479 31792,3456 31787,3434 31779,3413 31770,3395 31760,3378 31747,3363 31734,3350 31718,3339 31701,3329 31682,3321 31662,3315 31640,3311 31616,3308 31591,3307 31564,3308 31538,3311 31510,3315 31483,3321 31455,3328 31427,3338 31369,3362 31310,3392 31249,3430 31187,3474 31124,3525 31124,3173 31180,3140 31238,3111 31297,3086 31357,3066 31418,3050 31480,3039 31544,3032 31608,3030 31669,3032 31725,3038 31778,3049 31827,3063 31872,3082 31913,3104 31950,3131 31984,3162 32013,3197 32038,3236 32060,3279 32077,3327 32091,3378 32101,3434 32107,3493 32109,3557 32109,4436 Z M 31800,3801 L 31553,3835 31522,3840 31494,3846 31467,3852 31443,3858 31421,3866 31402,3874 31384,3883 31369,3892 31363,3897 31356,3903 31350,3909 31345,3915 31340,3922 31335,3930 31331,3938 31328,3946 31324,3955 31322,3964 31319,3974 31317,3985 31315,4007 31314,4031 31315,4048 31316,4056 31317,4064 31319,4072 31321,4079 31323,4087 31326,4094 31330,4101 31333,4108 31337,4114 31342,4121 31347,4127 31352,4133 31364,4145 31370,4150 31377,4155 31384,4160 31391,4164 31399,4168 31407,4172 31424,4178 31442,4183 31461,4186 31482,4188 31504,4189 31535,4188 31565,4183 31580,4180 31594,4176 31608,4172 31621,4167 31634,4161 31647,4154 31659,4146 31671,4138 31683,4130 31694,4120 31716,4099 31736,4076 31744,4063 31753,4051 31760,4038 31767,4024 31779,3996 31788,3966 31794,3935 31798,3902 31800,3867 31800,3801 Z"/>
        </g>
       </g>
       <g class="com.sun.star.drawing.PolyPolygonShape">
        <g id="id29">
         <rect class="BoundingBox" stroke="none" fill="none" x="32420" y="3030" width="1276" height="1992"/>
         <path fill="rgb(39,38,53)" stroke="none" d="M 32677,4209 L 32682,4205 32730,5021 32421,5021 32421,3060 32730,3060 32682,3331 32677,3327 32694,3291 32711,3258 32731,3226 32752,3197 32774,3171 32798,3146 32824,3124 32851,3105 32879,3087 32909,3072 32941,3059 32974,3049 33008,3041 33044,3035 33082,3031 33121,3030 33187,3033 33219,3037 33249,3042 33279,3049 33308,3057 33335,3066 33362,3077 33388,3090 33413,3104 33437,3119 33460,3136 33483,3154 33504,3174 33524,3195 33544,3218 33579,3267 33610,3319 33636,3375 33657,3435 33674,3498 33686,3566 33693,3636 33695,3711 33692,3793 33684,3872 33671,3946 33653,4016 33629,4083 33600,4145 33566,4203 33526,4257 33505,4283 33482,4306 33458,4328 33434,4349 33408,4367 33382,4384 33354,4400 33326,4414 33296,4426 33266,4437 33235,4446 33202,4453 33169,4459 33135,4463 33063,4466 33029,4465 32996,4462 32965,4457 32935,4450 32907,4441 32879,4430 32853,4417 32828,4402 32805,4385 32783,4365 32762,4344 32742,4321 32724,4296 32707,4269 32692,4240 32677,4209 Z M 32730,3687 L 32730,3865 32731,3898 32736,3930 32742,3961 32752,3991 32764,4019 32779,4046 32797,4071 32817,4095 32840,4117 32852,4127 32864,4136 32877,4145 32890,4152 32903,4159 32917,4166 32931,4171 32945,4176 32960,4180 32975,4183 33006,4188 33039,4189 33059,4189 33078,4187 33096,4185 33114,4181 33132,4177 33149,4172 33165,4165 33181,4158 33196,4150 33211,4141 33225,4131 33239,4119 33252,4107 33265,4094 33277,4080 33289,4065 33300,4049 33311,4033 33320,4015 33329,3997 33345,3957 33358,3914 33368,3867 33375,3817 33379,3764 33381,3707 33380,3660 33376,3616 33369,3575 33360,3536 33348,3501 33334,3468 33325,3452 33316,3438 33307,3424 33297,3410 33286,3398 33275,3386 33263,3375 33251,3365 33238,3356 33225,3348 33212,3340 33198,3333 33184,3327 33169,3322 33154,3317 33138,3314 33122,3311 33105,3309 33070,3307 33033,3309 32997,3314 32980,3318 32964,3322 32948,3328 32932,3334 32917,3341 32902,3349 32888,3358 32874,3367 32861,3378 32848,3389 32835,3401 32824,3414 32802,3442 32783,3471 32767,3503 32753,3536 32743,3571 32736,3608 32732,3647 32730,3687 Z"/>
        </g>
       </g>
       <g class="com.sun.star.drawing.PolyPolygonShape">
        <g id="id30">
         <rect class="BoundingBox" stroke="none" fill="none" x="33949" y="2449" width="1162" height="1988"/>
         <path fill="rgb(39,38,53)" stroke="none" d="M 35110,4436 L 34801,4436 34801,3651 34797,3570 34792,3534 34786,3501 34777,3470 34767,3441 34754,3416 34740,3393 34724,3373 34706,3355 34686,3341 34664,3329 34641,3319 34615,3312 34588,3308 34558,3307 34543,3307 34528,3309 34513,3310 34498,3313 34484,3317 34470,3321 34456,3326 34443,3332 34430,3338 34417,3345 34404,3353 34392,3362 34380,3372 34369,3382 34346,3405 34336,3418 34326,3431 34317,3444 34308,3458 34293,3488 34281,3519 34271,3552 34265,3587 34260,3625 34259,3664 34259,4436 33950,4436 33950,2450 34259,2450 34211,3319 34206,3315 34222,3280 34239,3248 34258,3218 34278,3190 34300,3165 34322,3141 34347,3120 34372,3101 34399,3085 34428,3070 34458,3058 34489,3048 34522,3040 34556,3034 34591,3031 34628,3030 34686,3032 34741,3039 34792,3050 34839,3066 34882,3086 34922,3110 34957,3139 34989,3173 35018,3210 35042,3253 35063,3300 35080,3351 35093,3406 35102,3467 35108,3531 35110,3600 35110,4436 Z"/>
        </g>
       </g>
       <g class="com.sun.star.drawing.PolyPolygonShape">
        <g id="id31">
         <rect class="BoundingBox" stroke="none" fill="none" x="36066" y="3030" width="1215" height="1437"/>
         <path fill="rgb(39,38,53)" stroke="none" d="M 37279,3852 L 36384,3852 36386,3886 36391,3918 36399,3950 36410,3980 36424,4009 36440,4037 36459,4064 36482,4089 36494,4101 36506,4113 36519,4123 36533,4133 36548,4142 36563,4150 36578,4157 36594,4164 36611,4170 36628,4175 36665,4183 36703,4187 36744,4189 36769,4188 36794,4186 36820,4182 36846,4177 36899,4161 36954,4140 37011,4112 37069,4078 37129,4038 37191,3992 37191,4319 37139,4353 37084,4383 37026,4408 36966,4429 36902,4445 36836,4457 36767,4464 36696,4466 36624,4463 36557,4454 36525,4447 36494,4439 36463,4430 36434,4419 36406,4406 36378,4392 36352,4376 36326,4359 36302,4341 36278,4321 36256,4299 36234,4277 36214,4252 36195,4227 36177,4200 36161,4173 36146,4144 36132,4114 36108,4051 36090,3983 36077,3911 36069,3834 36066,3753 36069,3676 36077,3602 36092,3531 36112,3465 36137,3401 36169,3342 36206,3286 36249,3233 36296,3186 36320,3164 36346,3144 36372,3126 36399,3109 36426,3094 36454,3081 36483,3069 36512,3059 36543,3050 36574,3043 36605,3037 36638,3033 36704,3030 36771,3033 36834,3041 36863,3048 36892,3055 36920,3064 36947,3075 36973,3087 36999,3100 37023,3114 37046,3130 37068,3148 37089,3167 37109,3187 37129,3208 37147,3231 37164,3255 37180,3280 37195,3305 37221,3360 37242,3418 37258,3481 37270,3547 37277,3618 37279,3692 37279,3852 Z M 36965,3574 L 36964,3548 36960,3523 36955,3499 36947,3476 36937,3453 36925,3431 36911,3409 36895,3389 36886,3379 36876,3370 36867,3361 36856,3353 36846,3346 36835,3339 36823,3333 36811,3328 36799,3323 36786,3319 36773,3315 36759,3312 36731,3308 36701,3307 36671,3309 36642,3313 36628,3316 36614,3320 36601,3324 36588,3329 36575,3335 36562,3342 36550,3349 36538,3357 36515,3375 36492,3396 36472,3418 36454,3440 36438,3463 36424,3485 36413,3507 36404,3529 36398,3552 36393,3574 36965,3574 Z"/>
        </g>
       </g>
       <g class="com.sun.star.drawing.PolyPolygonShape">
        <g id="id32">
         <rect class="BoundingBox" stroke="none" fill="none" x="37517" y="3030" width="1911" height="1407"/>
         <path fill="rgb(39,38,53)" stroke="none" d="M 39427,4436 L 39118,4436 39118,3654 39117,3607 39114,3564 39110,3525 39105,3489 39097,3457 39088,3429 39083,3416 39078,3404 39072,3393 39065,3383 39058,3374 39051,3365 39043,3357 39034,3350 39025,3343 39016,3337 39005,3331 38994,3326 38983,3322 38971,3318 38958,3315 38945,3312 38917,3308 38887,3307 38874,3308 38861,3309 38849,3311 38836,3314 38824,3317 38812,3321 38801,3327 38789,3333 38778,3339 38767,3347 38756,3355 38745,3364 38725,3385 38705,3409 38687,3435 38671,3462 38657,3492 38646,3522 38638,3554 38632,3587 38628,3622 38627,3659 38627,4436 38318,4436 38318,3629 38317,3590 38314,3553 38310,3520 38303,3488 38295,3459 38285,3433 38273,3409 38259,3388 38243,3369 38226,3352 38206,3339 38185,3327 38162,3318 38137,3312 38110,3308 38082,3307 38068,3308 38055,3309 38042,3311 38030,3313 38018,3316 38006,3321 37994,3325 37982,3331 37971,3337 37960,3344 37950,3352 37939,3361 37929,3370 37919,3380 37900,3402 37892,3414 37883,3427 37868,3454 37856,3483 37845,3514 37837,3547 37832,3582 37828,3619 37827,3659 37827,4436 37518,4436 37518,3060 37827,3060 37779,3309 37774,3305 37789,3272 37804,3241 37822,3212 37840,3185 37860,3160 37882,3138 37905,3117 37929,3099 37955,3083 37982,3069 38010,3057 38040,3047 38071,3040 38104,3034 38138,3031 38174,3030 38210,3031 38245,3035 38279,3042 38312,3051 38344,3063 38374,3077 38404,3094 38432,3113 38481,3151 38516,3180 38529,3191 38538,3201 38541,3205 38544,3208 38545,3211 38546,3212 38546,3213 38559,3191 38574,3170 38590,3151 38608,3133 38628,3117 38649,3102 38672,3088 38697,3076 38723,3065 38751,3056 38781,3048 38812,3042 38880,3033 38955,3030 39012,3032 39066,3039 39115,3050 39161,3066 39204,3086 39243,3110 39278,3139 39309,3173 39337,3211 39361,3253 39381,3300 39397,3351 39410,3407 39420,3467 39425,3531 39427,3600 39427,4436 Z"/>
        </g>
       </g>
       <g class="com.sun.star.drawing.PolyPolygonShape">
        <g id="id33">
         <rect class="BoundingBox" stroke="none" fill="none" x="39740" y="2449" width="1276" height="2018"/>
         <path fill="rgb(39,38,53)" stroke="none" d="M 39997,4209 L 40002,4205 40050,4436 39741,4436 39741,2450 40050,2450 40002,3331 39997,3327 40014,3291 40031,3258 40051,3226 40072,3197 40094,3171 40118,3146 40144,3124 40171,3105 40199,3087 40229,3072 40261,3059 40294,3049 40328,3041 40364,3035 40402,3031 40441,3030 40507,3033 40538,3037 40569,3042 40598,3049 40627,3057 40655,3066 40681,3077 40707,3090 40732,3103 40756,3119 40779,3136 40802,3154 40823,3174 40843,3195 40863,3218 40899,3267 40929,3319 40956,3375 40977,3435 40994,3498 41005,3566 41013,3636 41015,3711 41012,3793 41004,3872 40991,3946 40973,4016 40949,4083 40920,4145 40886,4203 40846,4257 40825,4283 40802,4306 40778,4328 40754,4349 40728,4367 40702,4384 40674,4400 40646,4414 40616,4426 40586,4437 40555,4446 40522,4453 40489,4459 40455,4463 40383,4466 40348,4465 40315,4462 40284,4457 40253,4450 40224,4441 40197,4430 40170,4417 40146,4402 40122,4385 40100,4365 40080,4344 40060,4321 40042,4296 40026,4269 40011,4240 39997,4209 Z M 40050,3687 L 40050,3865 40051,3898 40056,3930 40062,3961 40072,3991 40084,4019 40099,4046 40117,4071 40137,4095 40160,4117 40172,4127 40184,4136 40197,4145 40210,4152 40223,4159 40237,4166 40251,4171 40265,4176 40280,4180 40295,4183 40326,4188 40359,4189 40379,4189 40398,4187 40416,4185 40434,4181 40452,4177 40469,4172 40485,4165 40501,4158 40516,4150 40531,4141 40545,4131 40559,4119 40572,4107 40585,4094 40597,4080 40609,4065 40620,4049 40631,4033 40640,4015 40649,3997 40665,3957 40678,3914 40688,3867 40695,3817 40699,3764 40701,3707 40700,3660 40696,3616 40689,3575 40680,3536 40668,3501 40654,3468 40645,3452 40636,3438 40627,3424 40617,3410 40606,3398 40595,3386 40583,3375 40571,3365 40558,3356 40545,3348 40532,3340 40518,3333 40504,3327 40489,3322 40474,3317 40458,3314 40442,3311 40425,3309 40390,3307 40353,3309 40317,3314 40300,3318 40284,3322 40268,3328 40252,3334 40237,3341 40222,3349 40208,3358 40194,3367 40181,3378 40168,3389 40155,3401 40144,3414 40122,3442 40103,3471 40087,3503 40073,3536 40063,3571 40056,3608 40052,3647 40050,3687 Z"/>
        </g>
       </g>
       <g class="com.sun.star.drawing.PolyPolygonShape">
        <g id="id34">
         <rect class="BoundingBox" stroke="none" fill="none" x="41184" y="3030" width="1215" height="1437"/>
         <path fill="rgb(39,38,53)" stroke="none" d="M 42397,3852 L 41502,3852 41504,3886 41509,3918 41517,3950 41528,3980 41542,4009 41558,4037 41577,4064 41600,4089 41612,4101 41624,4113 41637,4123 41651,4133 41666,4142 41681,4150 41696,4157 41712,4164 41729,4170 41746,4175 41783,4183 41821,4187 41862,4189 41887,4188 41912,4186 41938,4182 41964,4177 42017,4161 42072,4140 42129,4112 42187,4078 42247,4038 42309,3992 42309,4319 42257,4353 42202,4383 42144,4408 42084,4429 42020,4445 41954,4457 41885,4464 41814,4466 41742,4463 41675,4454 41643,4447 41612,4439 41581,4430 41552,4419 41524,4406 41496,4392 41470,4376 41444,4359 41420,4341 41396,4321 41374,4299 41352,4277 41332,4252 41313,4227 41295,4200 41279,4173 41264,4144 41250,4114 41226,4051 41208,3983 41195,3911 41187,3834 41184,3753 41187,3676 41195,3602 41210,3531 41230,3465 41255,3401 41287,3342 41324,3286 41367,3233 41414,3186 41438,3164 41464,3144 41490,3126 41517,3109 41544,3094 41572,3081 41601,3069 41630,3059 41661,3050 41692,3043 41723,3037 41756,3033 41822,3030 41889,3033 41952,3041 41981,3048 42010,3055 42038,3064 42065,3075 42091,3087 42117,3100 42141,3114 42164,3130 42186,3148 42207,3167 42227,3187 42247,3208 42265,3231 42282,3255 42298,3280 42313,3305 42339,3360 42360,3418 42376,3481 42388,3547 42395,3618 42397,3692 42397,3852 Z M 42083,3574 L 42082,3548 42078,3523 42073,3499 42065,3476 42055,3453 42043,3431 42029,3409 42013,3389 42004,3379 41994,3370 41985,3361 41974,3353 41964,3346 41953,3339 41941,3333 41929,3328 41917,3323 41904,3319 41891,3315 41877,3312 41849,3308 41819,3307 41789,3309 41760,3313 41746,3316 41732,3320 41719,3324 41706,3329 41693,3335 41680,3342 41668,3349 41656,3357 41633,3375 41610,3396 41590,3418 41572,3440 41556,3463 41542,3485 41531,3507 41522,3529 41516,3552 41511,3574 42083,3574 Z"/>
        </g>
       </g>
       <g class="com.sun.star.drawing.PolyPolygonShape">
        <g id="id35">
         <rect class="BoundingBox" stroke="none" fill="none" x="42548" y="2449" width="1278" height="2018"/>
         <path fill="rgb(39,38,53)" stroke="none" d="M 43825,4436 L 43515,4436 43563,4172 43568,4176 43553,4211 43536,4244 43518,4275 43497,4303 43475,4329 43452,4353 43427,4374 43400,4394 43372,4411 43342,4425 43310,4438 43277,4448 43242,4456 43205,4461 43167,4465 43127,4466 43062,4463 43032,4459 43001,4454 42972,4448 42944,4440 42916,4430 42889,4419 42864,4407 42838,4393 42814,4377 42791,4361 42768,4342 42746,4323 42726,4301 42705,4279 42686,4255 42669,4230 42652,4204 42637,4177 42610,4120 42587,4060 42570,3995 42558,3927 42551,3854 42548,3778 42551,3696 42559,3619 42572,3545 42591,3475 42616,3410 42645,3348 42680,3291 42721,3237 42743,3212 42766,3188 42790,3167 42815,3146 42840,3128 42867,3111 42894,3096 42923,3082 42952,3070 42982,3059 43013,3050 43045,3043 43078,3037 43112,3033 43183,3030 43218,3031 43253,3034 43285,3039 43316,3046 43346,3055 43374,3065 43400,3078 43425,3093 43449,3109 43470,3128 43491,3148 43509,3171 43526,3195 43542,3222 43556,3250 43568,3280 43563,3284 43515,2450 43825,2450 43825,4436 Z M 43515,3809 L 43515,3622 43514,3589 43510,3558 43503,3528 43494,3499 43482,3472 43467,3446 43449,3421 43429,3398 43406,3377 43395,3367 43383,3358 43370,3350 43357,3343 43344,3336 43331,3330 43317,3325 43302,3320 43288,3316 43273,3313 43241,3309 43209,3307 43170,3309 43151,3311 43133,3315 43115,3319 43098,3324 43081,3330 43065,3337 43050,3345 43035,3354 43020,3364 43006,3374 42993,3386 42980,3398 42967,3412 42955,3426 42944,3442 42934,3458 42924,3475 42915,3492 42899,3530 42886,3571 42875,3616 42868,3663 42864,3714 42862,3768 42864,3817 42868,3863 42875,3906 42884,3946 42897,3984 42912,4018 42921,4035 42930,4050 42940,4065 42951,4079 42962,4092 42974,4105 42986,4116 42999,4127 43012,4137 43025,4146 43039,4154 43054,4162 43069,4168 43084,4174 43100,4178 43116,4182 43133,4185 43151,4187 43186,4189 43222,4187 43239,4185 43256,4182 43272,4179 43288,4174 43304,4169 43319,4162 43333,4155 43347,4148 43361,4139 43375,4129 43387,4119 43400,4108 43412,4096 43424,4083 43445,4055 43464,4026 43480,3994 43493,3961 43503,3926 43510,3889 43514,3850 43515,3809 Z"/>
        </g>
       </g>
       <g class="com.sun.star.drawing.PolyPolygonShape">
        <g id="id36">
         <rect class="BoundingBox" stroke="none" fill="none" x="44077" y="2449" width="1278" height="2018"/>
         <path fill="rgb(39,38,53)" stroke="none" d="M 45354,4436 L 45044,4436 45092,4172 45097,4176 45082,4211 45065,4244 45047,4275 45026,4303 45004,4329 44981,4353 44956,4374 44929,4394 44901,4411 44871,4425 44839,4438 44806,4448 44771,4456 44734,4461 44696,4465 44656,4466 44591,4463 44561,4459 44530,4454 44501,4448 44473,4440 44445,4430 44418,4419 44393,4407 44367,4393 44343,4377 44320,4361 44297,4342 44275,4323 44255,4301 44234,4279 44215,4255 44198,4230 44181,4204 44166,4177 44139,4120 44116,4060 44099,3995 44087,3927 44080,3854 44077,3778 44080,3696 44088,3619 44101,3545 44120,3475 44145,3410 44174,3348 44209,3291 44250,3237 44272,3212 44295,3188 44319,3167 44344,3146 44369,3128 44396,3111 44423,3096 44452,3082 44481,3070 44511,3059 44542,3050 44574,3043 44607,3037 44641,3033 44712,3030 44747,3031 44782,3034 44814,3039 44845,3046 44875,3055 44903,3065 44929,3078 44954,3093 44978,3109 44999,3128 45020,3148 45038,3171 45055,3195 45071,3222 45085,3250 45097,3280 45092,3284 45044,2450 45354,2450 45354,4436 Z M 45044,3809 L 45044,3622 45043,3589 45039,3558 45032,3528 45023,3499 45011,3472 44996,3446 44978,3421 44958,3398 44935,3377 44924,3367 44912,3358 44899,3350 44886,3343 44873,3336 44860,3330 44846,3325 44831,3320 44817,3316 44802,3313 44770,3309 44738,3307 44699,3309 44680,3311 44662,3315 44644,3319 44627,3324 44610,3330 44594,3337 44579,3345 44564,3354 44549,3364 44535,3374 44522,3386 44509,3398 44496,3412 44484,3426 44473,3442 44463,3458 44453,3475 44444,3492 44428,3530 44415,3571 44404,3616 44397,3663 44393,3714 44391,3768 44393,3817 44397,3863 44404,3906 44413,3946 44426,3984 44441,4018 44450,4035 44459,4050 44469,4065 44480,4079 44491,4092 44503,4105 44515,4116 44528,4127 44541,4137 44554,4146 44568,4154 44583,4162 44598,4168 44613,4174 44629,4178 44645,4182 44662,4185 44680,4187 44715,4189 44751,4187 44768,4185 44785,4182 44801,4179 44817,4174 44833,4169 44848,4162 44862,4155 44876,4148 44890,4139 44904,4129 44916,4119 44929,4108 44941,4096 44953,4083 44974,4055 44993,4026 45009,3994 45022,3961 45032,3926 45039,3889 45043,3850 45044,3809 Z"/>
        </g>
       </g>
       <g class="com.sun.star.drawing.PolyPolygonShape">
        <g id="id37">
         <rect class="BoundingBox" stroke="none" fill="none" x="45666" y="2473" width="373" height="1964"/>
         <path fill="rgb(39,38,53)" stroke="none" d="M 45851,2843 L 45832,2842 45814,2840 45797,2836 45789,2833 45780,2830 45772,2827 45764,2823 45749,2814 45735,2803 45721,2791 45708,2777 45702,2770 45697,2763 45692,2755 45688,2748 45684,2740 45680,2732 45677,2723 45674,2715 45672,2706 45670,2697 45667,2678 45667,2659 45667,2639 45670,2621 45674,2603 45677,2594 45680,2586 45684,2578 45688,2570 45692,2562 45697,2555 45702,2547 45708,2540 45721,2526 45735,2514 45749,2503 45764,2494 45772,2490 45780,2486 45789,2483 45797,2481 45814,2477 45832,2474 45851,2473 45870,2474 45888,2477 45906,2481 45914,2483 45923,2486 45931,2490 45939,2494 45954,2503 45969,2514 45983,2526 45996,2540 46002,2547 46007,2554 46012,2562 46016,2570 46020,2578 46024,2586 46027,2594 46030,2603 46032,2612 46034,2621 46037,2639 46038,2659 46037,2678 46034,2696 46032,2705 46030,2713 46027,2722 46024,2730 46021,2738 46016,2746 46012,2754 46007,2761 45996,2776 45983,2789 45969,2802 45954,2813 45939,2822 45931,2826 45923,2830 45914,2833 45906,2836 45888,2840 45870,2842 45851,2843 Z M 46003,4436 L 45694,4436 45694,3060 46003,3060 46003,4436 Z"/>
        </g>
       </g>
       <g class="com.sun.star.drawing.PolyPolygonShape">
        <g id="id38">
         <rect class="BoundingBox" stroke="none" fill="none" x="46342" y="3030" width="1162" height="1407"/>
         <path fill="rgb(39,38,53)" stroke="none" d="M 47503,4436 L 47194,4436 47194,3659 47190,3576 47185,3539 47179,3505 47170,3473 47160,3444 47147,3418 47133,3395 47117,3374 47099,3357 47079,3342 47057,3329 47034,3320 47008,3313 46981,3309 46951,3307 46920,3309 46905,3311 46890,3313 46875,3317 46861,3321 46847,3326 46834,3332 46821,3338 46808,3346 46795,3354 46783,3362 46771,3372 46760,3382 46738,3405 46717,3431 46700,3458 46685,3487 46673,3518 46664,3550 46657,3585 46653,3621 46652,3659 46652,4436 46343,4436 46343,3060 46652,3060 46604,3319 46599,3315 46615,3281 46632,3248 46650,3218 46670,3190 46691,3165 46714,3141 46738,3120 46764,3101 46791,3085 46820,3070 46850,3058 46881,3048 46914,3040 46948,3035 46984,3031 47021,3030 47078,3033 47131,3040 47156,3045 47181,3052 47204,3059 47227,3068 47249,3078 47270,3089 47290,3102 47310,3115 47328,3130 47346,3146 47363,3163 47379,3182 47394,3201 47408,3222 47421,3243 47433,3265 47454,3313 47472,3364 47485,3419 47495,3478 47501,3540 47503,3607 47503,4436 Z"/>
        </g>
       </g>
       <g class="com.sun.star.drawing.PolyPolygonShape">
        <g id="id39">
         <rect class="BoundingBox" stroke="none" fill="none" x="47730" y="3030" width="1278" height="2005"/>
         <path fill="rgb(39,38,53)" stroke="none" d="M 49007,4281 L 49004,4373 48995,4458 48981,4537 48961,4611 48936,4678 48905,4740 48868,4796 48826,4846 48778,4890 48724,4928 48665,4960 48600,4987 48530,5008 48453,5022 48372,5031 48284,5034 48222,5032 48162,5027 48102,5019 48044,5007 47986,4991 47930,4972 47874,4950 47819,4924 47819,4599 47888,4635 47954,4667 48016,4694 48075,4716 48132,4733 48185,4745 48235,4752 48282,4755 48332,4753 48379,4748 48423,4739 48464,4727 48501,4711 48535,4692 48566,4669 48593,4643 48618,4613 48639,4580 48657,4544 48671,4504 48683,4460 48691,4413 48696,4363 48697,4309 48745,4175 48750,4179 48735,4213 48717,4246 48698,4276 48678,4304 48656,4330 48632,4354 48607,4375 48580,4394 48552,4411 48522,4426 48490,4438 48457,4448 48422,4456 48386,4462 48348,4465 48309,4466 48245,4463 48214,4459 48185,4454 48156,4448 48127,4440 48100,4430 48073,4419 48047,4407 48022,4393 47998,4378 47975,4361 47952,4343 47930,4324 47909,4302 47889,4280 47870,4256 47852,4232 47835,4206 47819,4179 47792,4124 47770,4064 47752,4001 47740,3934 47733,3863 47730,3789 47733,3705 47741,3626 47754,3551 47772,3480 47796,3413 47825,3351 47860,3292 47879,3265 47900,3238 47921,3213 47944,3190 47968,3168 47992,3147 48018,3129 48044,3111 48072,3096 48101,3082 48130,3070 48161,3059 48192,3051 48225,3043 48258,3038 48293,3033 48365,3030 48400,3031 48433,3034 48466,3039 48496,3046 48525,3055 48553,3065 48580,3078 48604,3093 48628,3109 48650,3128 48670,3148 48689,3171 48707,3195 48723,3222 48737,3250 48750,3280 48745,3284 48697,3060 49007,3060 49007,4281 Z M 48697,3809 L 48697,3622 48696,3590 48692,3559 48685,3529 48676,3501 48663,3474 48648,3448 48631,3423 48610,3399 48588,3378 48576,3368 48564,3359 48552,3351 48539,3343 48526,3336 48512,3330 48499,3325 48485,3320 48470,3316 48455,3313 48425,3309 48393,3307 48354,3309 48335,3311 48316,3315 48298,3319 48281,3324 48264,3330 48248,3337 48232,3345 48217,3354 48202,3364 48188,3375 48175,3386 48162,3399 48149,3412 48137,3427 48126,3442 48116,3459 48106,3476 48097,3494 48081,3532 48068,3574 48057,3619 48050,3668 48046,3720 48044,3775 48046,3822 48050,3867 48057,3909 48066,3948 48079,3985 48094,4019 48103,4035 48112,4050 48122,4065 48133,4079 48144,4092 48156,4105 48168,4116 48180,4127 48193,4137 48207,4146 48221,4154 48235,4162 48250,4168 48265,4174 48280,4178 48296,4182 48313,4185 48330,4187 48365,4189 48401,4187 48418,4185 48435,4182 48451,4179 48467,4174 48483,4169 48498,4163 48513,4156 48527,4148 48541,4139 48555,4130 48568,4120 48581,4109 48593,4097 48605,4084 48616,4070 48626,4057 48636,4042 48645,4027 48661,3996 48674,3963 48684,3927 48692,3890 48696,3850 48697,3809 Z"/>
        </g>
       </g>
       <g class="com.sun.star.drawing.PolyPolygonShape">
        <g id="id40">
         <rect class="BoundingBox" stroke="none" fill="none" x="50075" y="2449" width="312" height="1988"/>
         <path fill="rgb(39,38,53)" stroke="none" d="M 50385,4436 L 50076,4436 50076,2450 50385,2450 50385,4436 Z"/>
        </g>
       </g>
       <g class="com.sun.star.drawing.PolyPolygonShape">
        <g id="id41">
         <rect class="BoundingBox" stroke="none" fill="none" x="50696" y="2473" width="373" height="1964"/>
         <path fill="rgb(39,38,53)" stroke="none" d="M 50881,2843 L 50862,2842 50844,2840 50827,2836 50819,2833 50810,2830 50802,2827 50794,2823 50779,2814 50765,2803 50751,2791 50738,2777 50732,2770 50727,2763 50722,2755 50718,2748 50714,2740 50710,2732 50707,2723 50704,2715 50702,2706 50700,2697 50697,2678 50697,2659 50697,2639 50700,2621 50704,2603 50707,2594 50710,2586 50714,2578 50718,2570 50722,2562 50727,2555 50732,2547 50738,2540 50751,2526 50765,2514 50779,2503 50794,2494 50802,2490 50810,2486 50819,2483 50827,2481 50844,2477 50862,2474 50881,2473 50900,2474 50918,2477 50936,2481 50944,2483 50953,2486 50961,2490 50969,2494 50984,2503 50999,2514 51013,2526 51026,2540 51032,2547 51037,2554 51042,2562 51046,2570 51050,2578 51054,2586 51057,2594 51060,2603 51062,2612 51064,2621 51067,2639 51068,2659 51067,2678 51064,2696 51062,2705 51060,2713 51057,2722 51054,2730 51051,2738 51046,2746 51042,2754 51037,2761 51026,2776 51013,2789 50999,2802 50984,2813 50969,2822 50961,2826 50953,2830 50944,2833 50936,2836 50918,2840 50900,2842 50881,2843 Z M 51033,4436 L 50724,4436 50724,3060 51033,3060 51033,4436 Z"/>
        </g>
       </g>
       <g class="com.sun.star.drawing.PolyPolygonShape">
        <g id="id42">
         <rect class="BoundingBox" stroke="none" fill="none" x="51372" y="2449" width="1276" height="2018"/>
         <path fill="rgb(39,38,53)" stroke="none" d="M 51629,4209 L 51634,4205 51682,4436 51373,4436 51373,2450 51682,2450 51634,3331 51629,3327 51646,3291 51663,3258 51683,3226 51704,3197 51726,3171 51750,3146 51776,3124 51803,3105 51831,3087 51861,3072 51893,3059 51926,3049 51960,3041 51996,3035 52034,3031 52073,3030 52139,3033 52170,3037 52201,3042 52230,3049 52259,3057 52287,3066 52313,3077 52339,3090 52364,3103 52388,3119 52411,3136 52434,3154 52455,3174 52475,3195 52495,3218 52531,3267 52561,3319 52588,3375 52609,3435 52626,3498 52637,3566 52645,3636 52647,3711 52644,3793 52636,3872 52623,3946 52605,4016 52581,4083 52552,4145 52518,4203 52478,4257 52457,4283 52434,4306 52410,4328 52386,4349 52360,4367 52334,4384 52306,4400 52278,4414 52248,4426 52218,4437 52187,4446 52154,4453 52121,4459 52087,4463 52015,4466 51980,4465 51947,4462 51916,4457 51885,4450 51856,4441 51829,4430 51802,4417 51778,4402 51754,4385 51732,4365 51712,4344 51692,4321 51674,4296 51658,4269 51643,4240 51629,4209 Z M 51682,3687 L 51682,3865 51683,3898 51688,3930 51694,3961 51704,3991 51716,4019 51731,4046 51749,4071 51769,4095 51792,4117 51804,4127 51816,4136 51829,4145 51842,4152 51855,4159 51869,4166 51883,4171 51897,4176 51912,4180 51927,4183 51958,4188 51991,4189 52011,4189 52030,4187 52048,4185 52066,4181 52084,4177 52101,4172 52117,4165 52133,4158 52148,4150 52163,4141 52177,4131 52191,4119 52204,4107 52217,4094 52229,4080 52241,4065 52252,4049 52263,4033 52272,4015 52281,3997 52297,3957 52310,3914 52320,3867 52327,3817 52331,3764 52333,3707 52332,3660 52328,3616 52321,3575 52312,3536 52300,3501 52286,3468 52277,3452 52268,3438 52259,3424 52249,3410 52238,3398 52227,3386 52215,3375 52203,3365 52190,3356 52177,3348 52164,3340 52150,3333 52136,3327 52121,3322 52106,3317 52090,3314 52074,3311 52057,3309 52022,3307 51985,3309 51949,3314 51932,3318 51916,3322 51900,3328 51884,3334 51869,3341 51854,3349 51840,3358 51826,3367 51813,3378 51800,3389 51787,3401 51776,3414 51754,3442 51735,3471 51719,3503 51705,3536 51695,3571 51688,3608 51684,3647 51682,3687 Z"/>
        </g>
       </g>
       <g class="com.sun.star.drawing.PolyPolygonShape">
        <g id="id43">
         <rect class="BoundingBox" stroke="none" fill="none" x="52902" y="3037" width="770" height="1400"/>
         <path fill="rgb(39,38,53)" stroke="none" d="M 53671,3426 L 53641,3404 53611,3385 53584,3368 53557,3355 53532,3344 53508,3337 53497,3334 53486,3332 53475,3331 53464,3331 53452,3331 53439,3333 53427,3335 53415,3338 53403,3341 53391,3346 53380,3351 53368,3357 53357,3364 53347,3372 53336,3381 53326,3390 53306,3411 53287,3436 53278,3449 53269,3463 53254,3494 53241,3527 53231,3563 53223,3602 53217,3644 53213,3688 53212,3736 53212,4436 52903,4436 52903,3060 53212,3060 53164,3370 53159,3368 53161,3330 53167,3294 53171,3276 53175,3260 53181,3244 53187,3228 53194,3213 53202,3199 53210,3185 53219,3172 53229,3159 53240,3147 53252,3135 53264,3124 53290,3104 53317,3086 53345,3072 53374,3059 53403,3050 53433,3043 53465,3039 53497,3038 53519,3038 53541,3040 53563,3043 53585,3047 53607,3051 53628,3057 53650,3064 53671,3072 53671,3426 Z"/>
        </g>
       </g>
       <g class="com.sun.star.drawing.PolyPolygonShape">
        <g id="id44">
         <rect class="BoundingBox" stroke="none" fill="none" x="53727" y="3030" width="1111" height="1437"/>
         <path fill="rgb(39,38,53)" stroke="none" d="M 54837,4436 L 54528,4436 54576,4190 54580,4193 54566,4226 54551,4257 54534,4286 54516,4313 54496,4337 54475,4360 54452,4380 54428,4398 54403,4414 54376,4428 54347,4439 54318,4449 54287,4456 54254,4462 54220,4465 54185,4466 54134,4464 54085,4459 54039,4450 53996,4437 53956,4421 53936,4411 53918,4401 53900,4390 53883,4378 53867,4365 53851,4351 53836,4336 53822,4321 53809,4305 53797,4288 53786,4271 53776,4254 53767,4235 53758,4217 53751,4197 53745,4177 53735,4136 53730,4092 53728,4046 53729,3997 53735,3951 53744,3907 53757,3866 53773,3827 53793,3792 53817,3759 53844,3728 53875,3700 53909,3675 53947,3652 53989,3632 54034,3615 54083,3601 54136,3588 54192,3579 54528,3532 54527,3505 54524,3479 54520,3456 54515,3434 54507,3413 54498,3395 54488,3378 54475,3363 54462,3350 54446,3339 54429,3329 54410,3321 54390,3315 54368,3311 54344,3308 54319,3307 54292,3308 54266,3311 54238,3315 54211,3321 54183,3328 54155,3338 54097,3362 54038,3392 53977,3430 53915,3474 53852,3525 53852,3173 53908,3140 53966,3111 54025,3086 54085,3066 54146,3050 54208,3039 54272,3032 54336,3030 54397,3032 54453,3038 54506,3049 54555,3063 54600,3082 54641,3104 54678,3131 54712,3162 54741,3197 54766,3236 54788,3279 54805,3327 54819,3378 54829,3434 54835,3493 54837,3557 54837,4436 Z M 54528,3801 L 54281,3835 54250,3840 54222,3846 54195,3852 54171,3858 54149,3866 54130,3874 54112,3883 54097,3892 54091,3897 54084,3903 54078,3909 54073,3915 54068,3922 54063,3930 54059,3938 54056,3946 54052,3955 54050,3964 54047,3974 54045,3985 54043,4007 54042,4031 54043,4048 54044,4056 54045,4064 54047,4072 54049,4079 54051,4087 54054,4094 54058,4101 54061,4108 54065,4114 54070,4121 54075,4127 54080,4133 54092,4145 54098,4150 54105,4155 54112,4160 54119,4164 54127,4168 54135,4172 54152,4178 54170,4183 54189,4186 54210,4188 54232,4189 54263,4188 54293,4183 54308,4180 54322,4176 54336,4172 54349,4167 54362,4161 54375,4154 54387,4146 54399,4138 54411,4130 54422,4120 54444,4099 54464,4076 54472,4063 54481,4051 54488,4038 54495,4024 54507,3996 54516,3966 54522,3935 54526,3902 54528,3867 54528,3801 Z"/>
        </g>
       </g>
       <g class="com.sun.star.drawing.PolyPolygonShape">
        <g id="id45">
         <rect class="BoundingBox" stroke="none" fill="none" x="55148" y="3037" width="770" height="1400"/>
         <path fill="rgb(39,38,53)" stroke="none" d="M 55917,3426 L 55887,3404 55857,3385 55830,3368 55803,3355 55778,3344 55754,3337 55743,3334 55732,3332 55721,3331 55710,3331 55698,3331 55685,3333 55673,3335 55661,3338 55649,3341 55637,3346 55626,3351 55614,3357 55603,3364 55593,3372 55582,3381 55572,3390 55552,3411 55533,3436 55524,3449 55515,3463 55500,3494 55487,3527 55477,3563 55469,3602 55463,3644 55459,3688 55458,3736 55458,4436 55149,4436 55149,3060 55458,3060 55410,3370 55405,3368 55407,3330 55413,3294 55417,3276 55421,3260 55427,3244 55433,3228 55440,3213 55448,3199 55456,3185 55465,3172 55475,3159 55486,3147 55498,3135 55510,3124 55536,3104 55563,3086 55591,3072 55620,3059 55649,3050 55679,3043 55711,3039 55743,3038 55765,3038 55787,3040 55809,3043 55831,3047 55853,3051 55874,3057 55896,3064 55917,3072 55917,3426 Z"/>
        </g>
       </g>
       <g class="com.sun.star.drawing.PolyPolygonShape">
        <g id="id46">
         <rect class="BoundingBox" stroke="none" fill="none" x="55854" y="3060" width="1357" height="1975"/>
         <path fill="rgb(39,38,53)" stroke="none" d="M 57209,3060 L 56597,4606 56552,4706 56528,4752 56503,4793 56476,4832 56449,4867 56420,4899 56390,4927 56359,4952 56326,4974 56293,4992 56258,5007 56223,5019 56186,5027 56148,5032 56108,5034 56086,5034 56064,5032 56041,5030 56018,5027 55995,5022 55971,5017 55947,5011 55923,5004 55923,4709 55981,4728 56030,4741 56050,4746 56068,4749 56083,4751 56096,4752 56111,4751 56125,4750 56139,4747 56152,4743 56165,4737 56177,4731 56189,4723 56201,4714 56212,4704 56223,4693 56233,4681 56243,4667 56252,4652 56261,4636 56278,4601 56371,4380 55855,3060 56195,3060 56552,4073 56552,4076 56553,4080 56553,4083 56553,4088 56553,4098 56551,4110 56548,4124 56545,4140 56535,4178 56528,4178 56523,4174 56519,4169 56515,4164 56512,4159 56510,4154 56507,4148 56506,4142 56504,4136 56503,4130 56503,4123 56503,4116 56503,4108 56504,4101 56506,4093 56510,4076 56884,3060 57209,3060 Z"/>
        </g>
       </g>
      </g>
     </g>
    </g>
   </g>
  </g>
 </g>
</svg>