<?xml version="1.0" encoding="UTF-8"?>
<!DOCTYPE svg PUBLIC "-//W3C//DTD SVG 1.1//EN" "http://www.w3.org/Graphics/SVG/1.1/DTD/svg11.dtd">
<svg version="1.2" width="112.27mm" height="71.12mm" viewBox="0 0 11227 7112" preserveAspectRatio="xMidYMid" fill-rule="evenodd" stroke-width="28.222" stroke-linejoin="round" xmlns="http://www.w3.org/2000/svg" xmlns:ooo="http://xml.openoffice.org/svg/export" xmlns:xlink="http://www.w3.org/1999/xlink" xmlns:presentation="http://sun.com/xmlns/staroffice/presentation" xmlns:smil="http://www.w3.org/2001/SMIL20/" xmlns:anim="urn:oasis:names:tc:opendocument:xmlns:animation:1.0" xml:space="preserve">
 <defs class="ClipPathGroup">
  <clipPath id="presentation_clip_path" clipPathUnits="userSpaceOnUse">
   <rect x="0" y="0" width="11227" height="7112"/>
  </clipPath>
  <clipPath id="presentation_clip_path_shrink" clipPathUnits="userSpaceOnUse">
   <rect x="11" y="7" width="11205" height="7098"/>
  </clipPath>
 </defs>
 <defs class="TextShapeIndex">
  <g ooo:slide="id1" ooo:id-list="id3 id4 id5 id6 id7 id8 id9 id10 id11 id12 id13 id14 id15"/>
 </defs>
 <defs class="EmbeddedBulletChars">
  <g id="bullet-char-template-57356" transform="scale(0.00048828125,-0.00048828125)">
   <path d="M 580,1141 L 1163,571 580,0 -4,571 580,1141 Z"/>
  </g>
  <g id="bullet-char-template-57354" transform="scale(0.00048828125,-0.00048828125)">
   <path d="M 8,1128 L 1137,1128 1137,0 8,0 8,1128 Z"/>
  </g>
  <g id="bullet-char-template-10146" transform="scale(0.00048828125,-0.00048828125)">
   <path d="M 174,0 L 602,739 174,1481 1456,739 174,0 Z M 1358,739 L 309,1346 659,739 1358,739 Z"/>
  </g>
  <g id="bullet-char-template-10132" transform="scale(0.00048828125,-0.00048828125)">
   <path d="M 2015,739 L 1276,0 717,0 1260,543 174,543 174,936 1260,936 717,1481 1274,1481 2015,739 Z"/>
  </g>
  <g id="bullet-char-template-10007" transform="scale(0.00048828125,-0.00048828125)">
   <path d="M 0,-2 C -7,14 -16,27 -25,37 L 356,567 C 262,823 215,952 215,954 215,979 228,992 255,992 264,992 276,990 289,987 310,991 331,999 354,1012 L 381,999 492,748 772,1049 836,1024 860,1049 C 881,1039 901,1025 922,1006 886,937 835,863 770,784 769,783 710,716 594,584 L 774,223 C 774,196 753,168 711,139 L 727,119 C 717,90 699,76 672,76 641,76 570,178 457,381 L 164,-76 C 142,-110 111,-127 72,-127 30,-127 9,-110 8,-76 1,-67 -2,-52 -2,-32 -2,-23 -1,-13 0,-2 Z"/>
  </g>
  <g id="bullet-char-template-10004" transform="scale(0.00048828125,-0.00048828125)">
   <path d="M 285,-33 C 182,-33 111,30 74,156 52,228 41,333 41,471 41,549 55,616 82,672 116,743 169,778 240,778 293,778 328,747 346,684 L 369,508 C 377,444 397,411 428,410 L 1163,1116 C 1174,1127 1196,1133 1229,1133 1271,1133 1292,1118 1292,1087 L 1292,965 C 1292,929 1282,901 1262,881 L 442,47 C 390,-6 338,-33 285,-33 Z"/>
  </g>
  <g id="bullet-char-template-9679" transform="scale(0.00048828125,-0.00048828125)">
   <path d="M 813,0 C 632,0 489,54 383,161 276,268 223,411 223,592 223,773 276,916 383,1023 489,1130 632,1184 813,1184 992,1184 1136,1130 1245,1023 1353,916 1407,772 1407,592 1407,412 1353,268 1245,161 1136,54 992,0 813,0 Z"/>
  </g>
  <g id="bullet-char-template-8226" transform="scale(0.00048828125,-0.00048828125)">
   <path d="M 346,457 C 273,457 209,483 155,535 101,586 74,649 74,723 74,796 101,859 155,911 209,963 273,989 346,989 419,989 480,963 531,910 582,859 608,796 608,723 608,648 583,586 532,535 482,483 420,457 346,457 Z"/>
  </g>
  <g id="bullet-char-template-8211" transform="scale(0.00048828125,-0.00048828125)">
   <path d="M -4,459 L 1135,459 1135,606 -4,606 -4,459 Z"/>
  </g>
  <g id="bullet-char-template-61548" transform="scale(0.00048828125,-0.00048828125)">
   <path d="M 173,740 C 173,903 231,1043 346,1159 462,1274 601,1332 765,1332 928,1332 1067,1274 1183,1159 1299,1043 1357,903 1357,740 1357,577 1299,437 1183,322 1067,206 928,148 765,148 601,148 462,206 346,322 231,437 173,577 173,740 Z"/>
  </g>
 </defs>
 <defs class="TextEmbeddedBitmaps"/>
 <g>
  <g id="id2" class="Master_Slide">
   <g id="bg-id2" class="Background"/>
   <g id="bo-id2" class="BackgroundObjects"/>
  </g>
 </g>
 <g class="SlideGroup">
  <g>
   <g id="container-id1">
    <g id="id1" class="Slide" clip-path="url(#presentation_clip_path)">
     <g class="Page">
      <g class="Group">
       <g class="com.sun.star.drawing.CustomShape">
        <g id="id3">
         <rect class="BoundingBox" stroke="none" fill="none" x="7382" y="506" width="3241" height="2906"/>
         <path fill="rgb(27,152,224)" stroke="none" d="M 8927,2043 L 7383,676 7533,506 10621,3240 10471,3410 8927,2043 Z"/>
        </g>
       </g>
       <g class="com.sun.star.drawing.CustomShape">
        <g id="id4">
         <rect class="BoundingBox" stroke="none" fill="none" x="7706" y="3455" width="2922" height="2939"/>
         <path fill="rgb(27,152,224)" stroke="none" d="M 9247,5004 L 7867,6393 7706,6233 10465,3456 10626,3615 9247,5004 Z"/>
        </g>
       </g>
       <g class="com.sun.star.drawing.CustomShape">
        <g id="id5">
         <rect class="BoundingBox" stroke="none" fill="none" x="3359" y="5318" width="3969" height="1100"/>
         <path fill="rgb(27,152,224)" stroke="none" d="M 5318,5978 L 3359,5540 3409,5318 7326,6195 7276,6417 5318,5978 Z"/>
        </g>
       </g>
       <g class="com.sun.star.drawing.CustomShape">
        <g id="id6">
         <rect class="BoundingBox" stroke="none" fill="none" x="6917" y="33" width="1415" height="1346"/>
         <path fill="rgb(27,152,224)" stroke="none" d="M 7623,110 C 7980,110 8254,368 8254,705 8254,1042 7980,1301 7623,1301 7266,1301 6993,1042 6993,705 6993,368 7266,110 7623,110 Z M 6993,110 L 6993,110 Z M 8255,1302 L 8255,1302 Z"/>
         <path fill="none" stroke="rgb(255,255,255)" stroke-width="152" stroke-linejoin="round" d="M 7623,110 C 7980,110 8254,368 8254,705 8254,1042 7980,1301 7623,1301 7266,1301 6993,1042 6993,705 6993,368 7266,110 7623,110 Z"/>
        </g>
       </g>
       <g class="com.sun.star.drawing.CustomShape">
        <g id="id7">
         <rect class="BoundingBox" stroke="none" fill="none" x="9736" y="2754" width="1415" height="1344"/>
         <path fill="rgb(27,152,224)" stroke="none" d="M 10442,2830 C 10799,2830 11073,3088 11073,3425 11073,3762 10799,4020 10442,4020 10085,4020 9812,3762 9812,3425 9812,3088 10085,2830 10442,2830 Z M 9812,2830 L 9812,2830 Z M 11074,4021 L 11074,4021 Z"/>
         <path fill="none" stroke="rgb(255,255,255)" stroke-width="152" stroke-linejoin="round" d="M 10442,2830 C 10799,2830 11073,3088 11073,3425 11073,3762 10799,4020 10442,4020 10085,4020 9812,3762 9812,3425 9812,3088 10085,2830 10442,2830 Z"/>
        </g>
       </g>
       <g class="com.sun.star.drawing.CustomShape">
        <g id="id8">
         <rect class="BoundingBox" stroke="none" fill="none" x="6913" y="5671" width="1414" height="1346"/>
         <path fill="rgb(27,152,224)" stroke="none" d="M 7619,5748 C 7976,5748 8249,6006 8249,6343 8249,6680 7976,6939 7619,6939 7262,6939 6989,6680 6989,6343 6989,6006 7262,5748 7619,5748 Z M 6989,5748 L 6989,5748 Z M 8250,6940 L 8250,6940 Z"/>
         <path fill="none" stroke="rgb(255,255,255)" stroke-width="152" stroke-linejoin="round" d="M 7619,5748 C 7976,5748 8249,6006 8249,6343 8249,6680 7976,6939 7619,6939 7262,6939 6989,6680 6989,6343 6989,6006 7262,5748 7619,5748 Z"/>
        </g>
       </g>
       <g class="com.sun.star.drawing.CustomShape">
        <g id="id9">
         <rect class="BoundingBox" stroke="none" fill="none" x="2545" y="4720" width="1415" height="1345"/>
         <path fill="rgb(27,152,224)" stroke="none" d="M 3251,4796 C 3608,4796 3882,5054 3882,5391 3882,5728 3608,5987 3251,5987 2894,5987 2621,5728 2621,5391 2621,5054 2894,4796 3251,4796 Z M 2621,4796 L 2621,4796 Z M 3883,5988 L 3883,5988 Z"/>
         <path fill="none" stroke="rgb(255,255,255)" stroke-width="152" stroke-linejoin="round" d="M 3251,4796 C 3608,4796 3882,5054 3882,5391 3882,5728 3608,5987 3251,5987 2894,5987 2621,5728 2621,5391 2621,5054 2894,4796 3251,4796 Z"/>
        </g>
       </g>
      </g>
      <g class="Group">
       <g class="com.sun.star.drawing.PolyPolygonShape">
        <g id="id10">
         <rect class="BoundingBox" stroke="none" fill="none" x="467" y="2512" width="1030" height="1886"/>
         <path fill="rgb(39,38,53)" stroke="none" d="M 1496,4397 L 467,4397 467,2512 781,2512 781,4103 1496,4103 1496,4397 Z"/>
        </g>
       </g>
       <g class="com.sun.star.drawing.PolyPolygonShape">
        <g id="id11">
         <rect class="BoundingBox" stroke="none" fill="none" x="1782" y="2434" width="373" height="1964"/>
         <path fill="rgb(39,38,53)" stroke="none" d="M 1967,2804 L 1948,2803 1930,2801 1913,2797 1905,2794 1896,2791 1888,2788 1880,2784 1865,2775 1851,2764 1837,2752 1824,2738 1818,2731 1813,2724 1808,2716 1804,2709 1800,2701 1796,2693 1793,2684 1790,2676 1788,2667 1786,2658 1783,2639 1783,2620 1783,2600 1786,2582 1790,2564 1793,2555 1796,2547 1800,2539 1804,2531 1808,2523 1813,2516 1818,2508 1824,2501 1837,2487 1851,2475 1865,2464 1880,2455 1888,2451 1896,2447 1905,2444 1913,2442 1930,2438 1948,2435 1967,2434 1986,2435 2004,2438 2022,2442 2030,2444 2039,2447 2047,2451 2055,2455 2070,2464 2085,2475 2099,2487 2112,2501 2118,2508 2123,2515 2128,2523 2132,2531 2136,2539 2140,2547 2143,2555 2146,2564 2148,2573 2150,2582 2153,2600 2154,2620 2153,2639 2150,2657 2148,2666 2146,2674 2143,2683 2140,2691 2137,2699 2132,2707 2128,2715 2123,2722 2112,2737 2099,2750 2085,2763 2070,2774 2055,2783 2047,2787 2039,2791 2030,2794 2022,2797 2004,2801 1986,2803 1967,2804 Z M 2119,4397 L 1810,4397 1810,3021 2119,3021 2119,4397 Z"/>
        </g>
       </g>
       <g class="com.sun.star.drawing.PolyPolygonShape">
        <g id="id12">
         <rect class="BoundingBox" stroke="none" fill="none" x="2599" y="2410" width="1276" height="2018"/>
         <path fill="rgb(39,38,53)" stroke="none" d="M 2856,4170 L 2861,4166 2909,4397 2600,4397 2600,2411 2909,2411 2861,3292 2856,3288 2873,3252 2890,3219 2910,3187 2931,3158 2953,3132 2977,3107 3003,3085 3030,3066 3058,3048 3088,3033 3120,3020 3153,3010 3187,3002 3223,2996 3261,2992 3300,2991 3366,2994 3397,2998 3428,3003 3457,3010 3486,3018 3514,3027 3540,3038 3566,3051 3591,3064 3615,3080 3638,3097 3661,3115 3682,3135 3702,3156 3722,3179 3758,3228 3788,3280 3815,3336 3836,3396 3853,3459 3864,3527 3872,3597 3874,3672 3871,3754 3863,3833 3850,3907 3832,3977 3808,4044 3779,4106 3745,4164 3705,4218 3684,4244 3661,4267 3637,4289 3613,4310 3587,4328 3561,4345 3533,4361 3505,4375 3475,4387 3445,4398 3414,4407 3381,4414 3348,4420 3314,4424 3242,4427 3207,4426 3174,4423 3143,4418 3112,4411 3083,4402 3056,4391 3029,4378 3005,4363 2981,4346 2959,4326 2939,4305 2919,4282 2901,4257 2885,4230 2870,4201 2856,4170 Z M 2909,3648 L 2909,3826 2910,3859 2915,3891 2921,3922 2931,3952 2943,3980 2958,4007 2976,4032 2996,4056 3019,4078 3031,4088 3043,4097 3056,4106 3069,4113 3082,4120 3096,4127 3110,4132 3124,4137 3139,4141 3154,4144 3185,4149 3218,4150 3238,4150 3257,4148 3275,4146 3293,4142 3311,4138 3328,4133 3344,4126 3360,4119 3375,4111 3390,4102 3404,4092 3418,4080 3431,4068 3444,4055 3456,4041 3468,4026 3479,4010 3490,3994 3499,3976 3508,3958 3524,3918 3537,3875 3547,3828 3554,3778 3558,3725 3560,3668 3559,3621 3555,3577 3548,3536 3539,3497 3527,3462 3513,3429 3504,3413 3495,3399 3486,3385 3476,3371 3465,3359 3454,3347 3442,3336 3430,3326 3417,3317 3404,3309 3391,3301 3377,3294 3363,3288 3348,3283 3333,3278 3317,3275 3301,3272 3284,3270 3249,3268 3212,3270 3176,3275 3159,3279 3143,3283 3127,3289 3111,3295 3096,3302 3081,3310 3067,3319 3053,3328 3040,3339 3027,3350 3014,3362 3003,3375 2981,3403 2962,3432 2946,3464 2932,3497 2922,3532 2915,3569 2911,3608 2909,3648 Z"/>
        </g>
       </g>
       <g class="com.sun.star.drawing.PolyPolygonShape">
        <g id="id13">
         <rect class="BoundingBox" stroke="none" fill="none" x="4297" y="2512" width="1410" height="1886"/>
         <path fill="rgb(27,152,224)" stroke="none" d="M 5705,4397 L 5273,4397 4570,3564 4565,3558 4561,3552 4557,3546 4554,3540 4551,3534 4549,3529 4547,3523 4546,3517 4546,3512 4546,3507 4547,3501 4548,3496 4550,3491 4552,3486 4555,3481 4558,3477 4563,3473 4611,4397 4297,4397 4297,2512 4611,2512 4563,3396 4558,3392 4556,3386 4554,3380 4553,3374 4552,3368 4551,3362 4551,3357 4551,3351 4551,3346 4552,3340 4554,3335 4556,3330 4558,3325 4560,3320 4563,3315 4567,3310 4571,3306 5251,2512 5653,2512 4843,3419 5705,4397 Z"/>
        </g>
       </g>
       <g class="com.sun.star.drawing.PolyPolygonShape">
        <g id="id14">
         <rect class="BoundingBox" stroke="none" fill="none" x="5829" y="2482" width="1554" height="1946"/>
         <path fill="rgb(27,152,224)" stroke="none" d="M 7382,4254 L 7304,4294 7226,4329 7147,4359 7066,4384 6984,4403 6902,4416 6818,4424 6733,4427 6635,4423 6541,4411 6452,4390 6410,4377 6368,4362 6328,4344 6289,4325 6251,4303 6214,4280 6179,4254 6145,4227 6112,4197 6080,4166 6049,4132 6021,4098 5995,4062 5970,4025 5948,3986 5927,3946 5909,3905 5892,3863 5865,3775 5845,3681 5833,3582 5830,3478 5834,3372 5847,3271 5868,3174 5899,3082 5917,3038 5938,2995 5960,2953 5985,2913 6012,2874 6041,2836 6106,2763 6177,2697 6215,2668 6253,2640 6293,2615 6334,2592 6376,2571 6419,2553 6463,2536 6509,2522 6603,2500 6702,2487 6805,2483 6880,2484 6952,2490 7023,2499 7091,2511 7158,2527 7222,2547 7285,2570 7346,2596 7346,2957 7275,2915 7204,2878 7133,2847 7063,2822 6992,2802 6922,2788 6852,2780 6782,2777 6714,2780 6650,2789 6619,2796 6589,2804 6559,2813 6531,2824 6503,2837 6476,2851 6450,2867 6424,2884 6399,2902 6375,2922 6352,2944 6330,2967 6308,2991 6288,3016 6270,3042 6253,3069 6237,3097 6222,3126 6198,3186 6178,3250 6165,3317 6156,3389 6154,3464 6156,3541 6164,3613 6177,3681 6194,3745 6217,3805 6230,3833 6245,3860 6261,3886 6278,3911 6297,3934 6316,3957 6337,3979 6359,3999 6381,4017 6405,4034 6429,4050 6455,4065 6481,4078 6508,4090 6536,4100 6565,4109 6626,4123 6691,4131 6759,4134 6807,4133 6852,4130 6894,4125 6934,4118 6971,4110 7006,4099 7038,4087 7067,4072 7067,3658 6678,3658 6678,3364 7382,3364 7382,4254 Z"/>
        </g>
       </g>
       <g class="com.sun.star.drawing.PolyPolygonShape">
        <g id="id15">
         <rect class="BoundingBox" stroke="none" fill="none" x="7866" y="2512" width="1050" height="1886"/>
         <path fill="rgb(27,152,224)" stroke="none" d="M 8915,4397 L 7866,4397 7866,2512 8875,2512 8875,2807 8180,2807 8180,3293 8823,3293 8823,3586 8180,3586 8180,4103 8915,4103 8915,4397 Z"/>
        </g>
       </g>
      </g>
     </g>
    </g>
   </g>
  </g>
 </g>
</svg>